<svg width="122" height="25" viewBox="0 0 122 25" fill="none" xmlns="http://www.w3.org/2000/svg">
<g clip-path="url(#clip0_510_2918)">
<path d="M121.252 0.529297H110.473L117.168 11.0569L110.686 22.0681H121.252V0.529297Z" fill="#64748A"/>
<mask id="mask0_510_2918" style="mask-type:luminance" maskUnits="userSpaceOnUse" x="108" y="11" width="6" height="8">
<path d="M108.902 11.2686V18.7578L113.276 11.2686H108.902Z" fill="white"/>
</mask>
<g mask="url(#mask0_510_2918)">
<path d="M113.276 11.2686H108.902V18.7384H113.276V11.2686Z" fill="#64748A"/>
</g>
<mask id="mask1_510_2918" style="mask-type:luminance" maskUnits="userSpaceOnUse" x="108" y="3" width="6" height="9">
<path d="M108.902 11.2696H113.295L108.902 3.7998V11.2696Z" fill="white"/>
</mask>
<g mask="url(#mask1_510_2918)">
<path d="M113.295 3.7998H108.902V11.2696H113.295V3.7998Z" fill="#64748A"/>
</g>
<path d="M23.2207 23.8059H18.4924V22.8054C15.6262 22.4861 13.5968 20.5916 13.5968 18.0798C13.5968 15.568 15.4169 13.3542 18.4924 13.0562V11.6935C14.9984 12.0554 12.8016 14.2692 12.3205 16.9516V0.475163H23.2207V23.8059ZM9.5379 16.7393C9.07769 13.9295 6.85999 11.9286 3.05208 11.7795V0.476663H9.5379V16.7393ZM12.3205 19.0596C12.718 21.3585 14.5172 23.167 17.0275 23.7852H12.3205V19.0596ZM9.5379 18.9531V23.7849H4.30739C7.17359 23.2752 9.09838 21.465 9.5379 18.9531ZM3.05208 13.1416C6.64982 13.1416 8.26161 15.2064 8.26161 17.9311C8.26161 20.6771 6.3578 22.6981 3.05208 22.6981V13.1416ZM23.5349 0.219727H0.269531V24.0613H23.5349V0.219727Z" fill="#64748A"/>
<mask id="mask2_510_2918" style="mask-type:luminance" maskUnits="userSpaceOnUse" x="71" y="11" width="9" height="8">
<path d="M73.899 13.4229V16.4342H71.9844V18.8927H79.0707V16.4342H77.1852V11.3926L73.899 13.4229Z" fill="white"/>
</mask>
<g mask="url(#mask2_510_2918)">
<mask id="mask3_510_2918" style="mask-type:luminance" maskUnits="userSpaceOnUse" x="71" y="11" width="9" height="8">
<path d="M79.0704 11.3936H71.9844V18.8921H79.0704V11.3936Z" fill="white"/>
</mask>
<g mask="url(#mask3_510_2918)">
<path d="M80.1213 10.2324H71.127V20.1262H80.1213V10.2324Z" fill="#64748A"/>
<path d="M79.9719 10.3818H71.2773V19.9758H79.9719V10.3818Z" stroke="#64748A" stroke-width="0.299811"/>
</g>
</g>
<mask id="mask4_510_2918" style="mask-type:luminance" maskUnits="userSpaceOnUse" x="80" y="5" width="7" height="15">
<path d="M86.3815 5.70215L80.1562 9.55413V14.0531C80.1562 18.4765 83.8014 19.0162 85.6644 19.0162C86.0016 19.0186 86.3384 18.9935 86.6715 18.9409V16.2507C86.6715 16.2507 86.4415 16.2753 86.0811 16.2753C85.1463 16.2753 83.4404 15.9656 83.4404 13.7155V8.1564H86.4409V5.70215H86.3815Z" fill="white"/>
</mask>
<g mask="url(#mask4_510_2918)">
<mask id="mask5_510_2918" style="mask-type:luminance" maskUnits="userSpaceOnUse" x="80" y="5" width="7" height="15">
<path d="M86.6709 5.70117H80.1562V19.0155H86.6709V5.70117Z" fill="white"/>
</mask>
<g mask="url(#mask5_510_2918)">
<path d="M87.9152 5.43359H78.6211V20.1244H87.9152V5.43359Z" fill="#64748A"/>
<path d="M87.7658 5.58398H78.7715V19.9749H87.7658V5.58398Z" stroke="#64748A" stroke-width="0.299811"/>
</g>
</g>
<mask id="mask6_510_2918" style="mask-type:luminance" maskUnits="userSpaceOnUse" x="86" y="5" width="14" height="15">
<path d="M89.442 14.9318C89.442 12.9407 92.569 12.7336 93.8612 12.7336H94.4054V13.1719C94.4054 14.8275 93.1393 16.7397 91.3551 16.7397C90.1381 16.7397 89.442 15.9134 89.442 14.9309M87.0093 7.02037L88.2262 9.29534C88.2262 9.29534 89.9843 8.02773 91.9481 8.02773C93.32 8.02773 94.3793 8.62256 94.3793 10.3039V10.7434H93.5527C91.4327 10.7434 86.1309 11.1572 86.1309 15.1902C86.1309 17.8804 88.2523 19.1987 90.4994 19.1987C91.3615 19.2101 92.2093 18.9785 92.9459 18.5304C93.6824 18.0823 94.2779 17.4358 94.6641 16.665H94.7163C94.6613 16.8845 94.6355 17.1103 94.6395 17.3366V17.4913C94.6395 18.2423 95.1039 18.8878 96.3185 18.8878H99.4206V16.4308H98.2324C98.1552 16.4412 98.0766 16.4336 98.0027 16.4087C97.9289 16.3837 97.8618 16.3421 97.8067 16.287C97.7516 16.2318 97.7099 16.1648 97.685 16.0909C97.66 16.0171 97.6524 15.9385 97.6628 15.8612V10.5887C97.6628 7.22724 95.774 5.39089 92.232 5.39089C90.3639 5.37646 88.5377 5.94617 87.0093 7.02037Z" fill="white"/>
</mask>
<g mask="url(#mask6_510_2918)">
<mask id="mask7_510_2918" style="mask-type:luminance" maskUnits="userSpaceOnUse" x="86" y="5" width="14" height="15">
<path d="M99.4226 5.39258H86.1328V19.2004H99.4226V5.39258Z" fill="white"/>
</mask>
<g mask="url(#mask7_510_2918)">
<path d="M99.9115 3.33496H84.6211V20.1244H99.9115V3.33496Z" fill="#64748A"/>
<path d="M99.7621 3.48535H84.7715V19.975H99.7621V3.48535Z" stroke="#64748A" stroke-width="0.299811"/>
</g>
</g>
<mask id="mask8_510_2918" style="mask-type:luminance" maskUnits="userSpaceOnUse" x="97" y="0" width="9" height="19">
<path d="M97.7383 0.529297V2.98775H99.7815V14.7017C99.7815 18.2961 101.721 18.9938 103.816 18.9938C104.213 18.9931 104.61 18.967 105.004 18.9155V16.279C104.982 16.279 104.732 16.3051 104.383 16.3051C103.298 16.3051 103.039 15.683 103.039 14.4948V0.529297H97.7383Z" fill="white"/>
</mask>
<g mask="url(#mask8_510_2918)">
<mask id="mask9_510_2918" style="mask-type:luminance" maskUnits="userSpaceOnUse" x="97" y="0" width="9" height="19">
<path d="M105.004 0.52832H97.7383V18.9913H105.004V0.52832Z" fill="white"/>
</mask>
<g mask="url(#mask9_510_2918)">
<path d="M106.204 -1.16309H95.7109V21.9224H106.204V-1.16309Z" fill="#64748A"/>
<path d="M106.055 -1.0127H95.8613V21.773H106.055V-1.0127Z" stroke="#64748A" stroke-width="0.299811"/>
</g>
</g>
<mask id="mask10_510_2918" style="mask-type:luminance" maskUnits="userSpaceOnUse" x="56" y="20" width="9" height="5">
<path d="M56.9375 23.9132V24.0631H64.0487V21.6046H62.1338V20.6992L56.9375 23.9132Z" fill="white"/>
</mask>
<g mask="url(#mask10_510_2918)">
<mask id="mask11_510_2918" style="mask-type:luminance" maskUnits="userSpaceOnUse" x="56" y="20" width="9" height="5">
<path d="M64.0484 20.6992H56.9375V24.0622H64.0484V20.6992Z" fill="white"/>
</mask>
<g mask="url(#mask11_510_2918)">
<path d="M65.135 19.8252H56.1406V26.421H65.135V19.8252Z" fill="#64748A"/>
<path d="M64.9855 19.9756H56.291V26.2716H64.9855V19.9756Z" stroke="#64748A" stroke-width="0.299811"/>
</g>
</g>
<mask id="mask12_510_2918" style="mask-type:luminance" maskUnits="userSpaceOnUse" x="64" y="14" width="8" height="6">
<path d="M64.7656 19.0702C65.1402 19.1583 65.524 19.2015 65.9088 19.1991C68.6071 19.1991 70.752 17.5582 71.5752 14.8623L64.7656 19.0702Z" fill="white"/>
</mask>
<g mask="url(#mask12_510_2918)">
<mask id="mask13_510_2918" style="mask-type:luminance" maskUnits="userSpaceOnUse" x="64" y="14" width="8" height="6">
<path d="M71.5752 14.8623H64.7656V19.1991H71.5752V14.8623Z" fill="white"/>
</mask>
<g mask="url(#mask13_510_2918)">
<path d="M72.6291 11.7305H63.6348V21.6242H72.6291V11.7305Z" fill="#64748A"/>
<path d="M72.4797 11.8809H63.7852V21.4748H72.4797V11.8809Z" stroke="#64748A" stroke-width="0.299811"/>
</g>
</g>
<path d="M37.0513 0.219727C39.2753 0.219727 44.2141 0.995337 44.2141 3.89092V6.37486H41.1362V4.95255C41.1362 3.58211 38.7077 3.1162 37.206 3.1162C33.6637 3.1162 31.0778 5.59924 31.0778 9.4776C31.0778 13.615 33.7681 16.3049 37.3871 16.3049C38.5 16.3049 41.3695 15.943 41.3695 14.4946V13.072H44.447V15.5797C44.447 18.3202 39.7151 19.2002 37.1799 19.2002C31.6202 19.2002 27.5859 14.9848 27.5859 9.63231C27.5874 4.20302 31.7248 0.219727 37.0513 0.219727Z" fill="#64748A"/>
<path d="M49.6166 16.7446C51.4023 16.7446 52.6684 14.83 52.6684 13.1769V12.7364H52.1249C50.8312 12.7364 47.7042 12.9433 47.7042 14.9347C47.7042 15.9171 48.4003 16.7449 49.6157 16.7449M51.8149 10.7451H52.6441V10.3053C52.6441 8.62632 51.5834 8.03059 50.2118 8.03059C48.2477 8.03059 46.4884 9.297 46.4884 9.297L45.2715 7.02233C46.8004 5.94798 48.6268 5.37827 50.4954 5.39285C54.0392 5.39285 55.9247 7.2292 55.9247 10.5907V15.8653C55.9142 15.9425 55.9217 16.0212 55.9466 16.0951C55.9715 16.169 56.0132 16.2361 56.0683 16.2913C56.1234 16.3464 56.1906 16.3881 56.2645 16.413C56.3384 16.4379 56.417 16.4454 56.4943 16.4349H57.6837V18.8934H54.5833C53.3679 18.8934 52.9005 18.2467 52.9005 17.4968V17.3421C52.8964 17.1153 52.9232 16.889 52.9799 16.6694H52.9263C52.5402 17.44 51.945 18.0863 51.2087 18.5344C50.4725 18.9825 49.6249 19.2142 48.7631 19.2031C46.5145 19.2031 44.3945 17.8839 44.3945 15.1961C44.3945 11.1618 49.6952 10.7478 51.8152 10.7478" fill="#64748A"/>
<path d="M65.3157 16.4327C63.1697 16.4327 62.0295 14.4155 62.0295 12.3738C62.0295 9.45067 63.6344 8.21065 65.3388 8.21065C67.2807 8.21065 68.6251 9.83863 68.6251 12.348C68.6251 14.9585 67.1245 16.4318 65.3157 16.4318M66.0884 5.39062C62.9868 5.39272 61.8475 7.61822 61.8475 7.61822H61.7966C61.7966 7.61822 61.8241 7.3304 61.8241 7.0219V6.94515C61.8241 6.27237 61.4089 5.70363 60.1947 5.70363H56.8086V8.15938H58.2816C58.3581 8.1516 58.4354 8.16094 58.5078 8.18674C58.5803 8.21255 58.6461 8.25416 58.7005 8.30856C58.7548 8.36296 58.7964 8.42878 58.8222 8.50125C58.8479 8.57372 58.8572 8.65101 58.8494 8.72753V21.6047H56.9375V23.9133L62.1338 20.7008V18.478C62.1362 18.0969 62.1105 17.7161 62.0571 17.3387H62.1093C62.7552 18.2187 63.6987 18.8343 64.7644 19.071L71.5728 14.8617C71.8182 14.0292 71.9394 13.1652 71.9326 12.2974C71.9326 8.21095 69.6579 5.39212 66.0881 5.39212" fill="#64748A"/>
<path d="M71.8555 5.70397V8.15823H73.8963V13.4226L77.181 11.3923V5.70397H71.8555ZM73.8726 3.45389H77.1834V0.532227H73.8726V3.45389Z" fill="#64748A"/>
<path d="M86.3815 5.70471H83.4413V2.10938H80.2588V5.70471H78.1406V8.15897H80.1551V9.55549L86.3815 5.70471Z" fill="#64748A"/>
<path d="M68.0343 22.9154C68.0329 22.9266 68.0281 22.937 68.0205 22.9454C68.0105 22.9552 67.9984 22.9626 67.9851 22.9669C67.9657 22.9738 67.9456 22.9785 67.9251 22.9807C67.8946 22.984 67.8638 22.9855 67.8331 22.9852C67.8031 22.9856 67.773 22.9841 67.7432 22.9807C67.7244 22.9789 67.706 22.9742 67.6886 22.9669C67.6778 22.9627 67.6687 22.9551 67.6625 22.9454C67.658 22.936 67.6571 22.9253 67.6601 22.9154L67.9123 21.6505C67.9198 21.6065 67.9262 21.5648 67.9314 21.5254C67.9368 21.4862 67.9395 21.4466 67.9395 21.407C67.9431 21.3258 67.9232 21.2452 67.8823 21.175C67.8602 21.1451 67.8307 21.1215 67.7968 21.1065C67.7628 21.0916 67.7255 21.0857 67.6886 21.0895C67.6054 21.0916 67.5243 21.1155 67.4532 21.1588C67.3665 21.2096 67.2886 21.2741 67.2224 21.3498C67.1454 21.4371 67.0804 21.5343 67.029 21.6388C66.9717 21.7536 66.9304 21.8756 66.9061 22.0015L66.7241 22.9154C66.7213 22.9265 66.7159 22.9368 66.7082 22.9454C66.6983 22.9552 66.6861 22.9626 66.6728 22.9669C66.6534 22.9738 66.6333 22.9785 66.6129 22.9807C66.5823 22.984 66.5516 22.9855 66.5208 22.9852C66.4908 22.9856 66.4607 22.9841 66.4309 22.9807C66.4125 22.979 66.3945 22.9743 66.3775 22.9669C66.3672 22.9624 66.3585 22.9549 66.3526 22.9454C66.3481 22.9361 66.3465 22.9256 66.3481 22.9154L66.5991 21.6505C66.6095 21.6063 66.6167 21.5614 66.6207 21.5162C66.6245 21.4722 66.6264 21.4312 66.6264 21.3932C66.6302 21.3152 66.6104 21.2379 66.5694 21.1714C66.5467 21.1425 66.5171 21.1199 66.4832 21.1055C66.4494 21.0912 66.4125 21.0857 66.376 21.0895C66.2924 21.0913 66.2108 21.1152 66.1395 21.1588C66.0533 21.2099 65.9757 21.2743 65.9098 21.3498C65.8328 21.4371 65.7678 21.5343 65.7164 21.6388C65.6592 21.7536 65.6178 21.8756 65.5935 22.0015L65.4115 22.9154C65.4088 22.9265 65.4033 22.9368 65.3956 22.9454C65.386 22.9551 65.3743 22.9624 65.3615 22.9669C65.3421 22.974 65.322 22.9787 65.3015 22.9807C65.2709 22.984 65.2402 22.9855 65.2094 22.9852C65.1786 22.9858 65.1478 22.9845 65.1171 22.9813C65.0983 22.9795 65.0799 22.9748 65.0625 22.9675C65.052 22.9635 65.0432 22.9558 65.0377 22.946C65.0343 22.9362 65.0343 22.9257 65.0377 22.916L65.4481 20.8656C65.4496 20.8547 65.454 20.8443 65.4607 20.8356C65.4691 20.8253 65.48 20.8174 65.4925 20.8128C65.51 20.806 65.5283 20.8017 65.547 20.8002C65.5731 20.7978 65.5994 20.7967 65.6256 20.7969C65.6518 20.7966 65.678 20.7977 65.7041 20.8002C65.7207 20.8014 65.7368 20.8057 65.7518 20.8128C65.7617 20.8173 65.7694 20.8255 65.7734 20.8356C65.7766 20.8452 65.7774 20.8555 65.7758 20.8656L65.6984 21.2553C65.7271 21.1951 65.7652 21.1399 65.8112 21.0916C65.925 20.9679 66.0659 20.8721 66.2228 20.8119C66.3037 20.781 66.3896 20.7653 66.4762 20.7657C66.5558 20.7639 66.6352 20.7766 66.7103 20.8032C66.7707 20.8251 66.8254 20.86 66.8707 20.9054C66.9128 20.9491 66.9444 21.0018 66.963 21.0595C66.9834 21.1233 66.9956 21.1894 66.9993 21.2562C67.0347 21.1961 67.0768 21.1402 67.1246 21.0895C67.1799 21.0301 67.2418 20.9771 67.309 20.9315C67.38 20.8829 67.4564 20.8427 67.5366 20.8116C67.6162 20.7809 67.701 20.7653 67.7863 20.7657C67.8733 20.7631 67.9599 20.7778 68.0412 20.8089C68.1051 20.8347 68.1621 20.8753 68.2073 20.9273C68.2498 20.9783 68.2805 21.0381 68.2972 21.1024C68.316 21.1736 68.3251 21.247 68.3245 21.3207C68.3246 21.3732 68.3216 21.4256 68.3155 21.4778C68.3095 21.5293 68.3012 21.5824 68.2906 21.637L68.0343 22.9154ZM70.4205 22.9154C70.4175 22.928 70.4114 22.9397 70.4026 22.9492C70.3938 22.9588 70.3827 22.9659 70.3704 22.9699C70.3261 22.9828 70.28 22.9882 70.234 22.9858C70.2089 22.9862 70.1839 22.9847 70.159 22.9813C70.1427 22.9792 70.1267 22.9749 70.1114 22.9687C70.101 22.9649 70.0923 22.9577 70.0865 22.9484C70.0842 22.9432 70.083 22.9375 70.083 22.9319C70.083 22.9262 70.0842 22.9206 70.0865 22.9154L70.1608 22.5286C70.1344 22.5873 70.0982 22.6412 70.0538 22.6878C69.9993 22.748 69.9378 22.8014 69.8706 22.847C69.7975 22.8967 69.7184 22.9369 69.6353 22.9669C69.5509 22.9984 69.4615 23.0145 69.3714 23.0146C69.2673 23.0184 69.1638 22.9966 69.0701 22.9511C68.9938 22.9116 68.9285 22.8538 68.88 22.7829C68.8323 22.7113 68.7995 22.6308 68.7835 22.5463C68.766 22.4574 68.7573 22.3671 68.7574 22.2765C68.7584 22.1797 68.7664 22.0831 68.7814 21.9875C68.7983 21.8756 68.8242 21.7653 68.8588 21.6577C68.8949 21.5442 68.9415 21.4343 68.9979 21.3294C69.0533 21.2253 69.1226 21.1293 69.2038 21.044C69.284 20.96 69.3788 20.8914 69.4836 20.8416C69.5968 20.7893 69.7204 20.7632 69.8451 20.7654C69.9659 20.762 70.0855 20.7902 70.192 20.8473C70.2918 20.9049 70.3795 20.9814 70.4502 21.0724L70.4933 20.8656C70.4968 20.853 70.5035 20.8416 70.5127 20.8324C70.5219 20.8233 70.5333 20.8166 70.5458 20.8131C70.5894 20.8005 70.6348 20.7952 70.6801 20.7972C70.7055 20.7969 70.731 20.798 70.7563 20.8005C70.7732 20.8019 70.7897 20.8061 70.8051 20.8131C70.8103 20.8152 70.8149 20.8183 70.8188 20.8222C70.8227 20.8261 70.8258 20.8308 70.8279 20.8359C70.8311 20.8455 70.8319 20.8558 70.8303 20.8659L70.4205 22.9154ZM70.35 21.4028C70.2899 21.3095 70.2113 21.2294 70.1192 21.1675C70.0359 21.1149 69.9391 21.0876 69.8406 21.0889C69.7628 21.0878 69.6861 21.1078 69.6188 21.1468C69.5514 21.1867 69.4921 21.2387 69.4437 21.3003C69.391 21.3671 69.3467 21.4401 69.3118 21.5177C69.275 21.5988 69.2449 21.6828 69.2218 21.7689C69.1988 21.8526 69.1813 21.9377 69.1694 22.0237C69.1586 22.0983 69.1529 22.1735 69.1523 22.2489C69.1523 22.3018 69.1565 22.3546 69.1649 22.4069C69.1724 22.457 69.1886 22.5055 69.2125 22.5502C69.2353 22.5927 69.2686 22.6287 69.3091 22.6548C69.3572 22.6833 69.4125 22.6971 69.4683 22.6947C69.5566 22.6934 69.643 22.6696 69.7195 22.6255C69.8084 22.5754 69.888 22.5103 69.9549 22.4333C70.0315 22.3457 70.0965 22.2485 70.1482 22.1443C70.2058 22.0286 70.2477 21.9058 70.2727 21.7791L70.35 21.4028ZM73.123 20.8611C73.1223 20.8815 73.1156 20.9013 73.1038 20.918C73.0815 20.948 73.056 20.9755 73.0276 20.9999L72.1381 21.762L72.75 22.7925C72.7628 22.8145 72.7734 22.8377 72.7818 22.8617C72.7869 22.876 72.7899 22.8909 72.7908 22.9061C72.7912 22.9185 72.7881 22.9307 72.7818 22.9415C72.7737 22.9529 72.7621 22.9613 72.7488 22.9654C72.7282 22.9726 72.7069 22.9775 72.6852 22.9801C72.6524 22.9843 72.6194 22.9862 72.5863 22.9858C72.5439 22.9858 72.5106 22.9847 72.4862 22.9825C72.4657 22.9812 72.4455 22.977 72.4262 22.9699C72.4131 22.9653 72.4014 22.9575 72.392 22.9472C72.3837 22.9368 72.3768 22.9253 72.3716 22.913L71.7172 21.7791L71.492 22.9154C71.4892 22.9265 71.4838 22.9368 71.4761 22.9454C71.4662 22.9552 71.454 22.9626 71.4407 22.9669C71.4213 22.9738 71.4012 22.9785 71.3808 22.9807C71.3502 22.984 71.3195 22.9855 71.2887 22.9852C71.2587 22.9856 71.2286 22.9841 71.1988 22.9807C71.1801 22.9788 71.1618 22.9746 71.1442 22.9681C71.1332 22.9644 71.1239 22.9567 71.1181 22.9466C71.1135 22.9366 71.1126 22.9253 71.1157 22.9148L71.7217 19.8762C71.7244 19.8647 71.7294 19.8539 71.7363 19.8444C71.7454 19.8338 71.7572 19.8259 71.7705 19.8216C71.7899 19.8147 71.81 19.8101 71.8305 19.8078C71.8619 19.8045 71.8934 19.803 71.9249 19.8033C71.955 19.803 71.985 19.8045 72.0149 19.8078C72.0336 19.8097 72.052 19.8143 72.0694 19.8216C72.0748 19.8236 72.0797 19.8266 72.0838 19.8305C72.0879 19.8344 72.0912 19.8392 72.0934 19.8444C72.0966 19.8547 72.0974 19.8655 72.0958 19.8762L71.7262 21.7278L72.6748 20.8704C72.6868 20.8568 72.7006 20.8449 72.7158 20.835C72.732 20.8247 72.7497 20.817 72.7683 20.8122C72.791 20.8064 72.8142 20.8026 72.8376 20.8008C72.8641 20.7986 72.8956 20.7975 72.932 20.7975C72.9684 20.7975 72.9991 20.7986 73.024 20.8008C73.0444 20.802 73.0646 20.8059 73.084 20.8122C73.0957 20.816 73.1062 20.823 73.114 20.8326C73.12 20.8409 73.1231 20.8508 73.123 20.8611ZM74.199 20.1787C74.1933 20.2154 74.1833 20.2514 74.169 20.2857C74.1577 20.3124 74.1404 20.3362 74.1183 20.355C74.095 20.3734 74.0677 20.3862 74.0386 20.3925C74.0005 20.4007 73.9616 20.4045 73.9226 20.4039C73.8859 20.4046 73.8492 20.4008 73.8134 20.3925C73.7887 20.3873 73.7664 20.3741 73.7499 20.355C73.7353 20.3348 73.7273 20.3106 73.7271 20.2857C73.7261 20.2498 73.7291 20.2139 73.7361 20.1787C73.7432 20.1422 73.7547 20.1067 73.7703 20.0729C73.7828 20.0464 73.8002 20.0225 73.8215 20.0024C73.8437 19.9826 73.8709 19.9692 73.9001 19.9637C73.9383 19.9563 73.9772 19.9529 74.0161 19.9535C74.0524 19.9528 74.0886 19.9562 74.124 19.9637C74.1491 19.9688 74.1716 19.9825 74.1876 20.0024C74.2026 20.0229 74.211 20.0475 74.2116 20.0729C74.212 20.1085 74.2077 20.1441 74.199 20.1787ZM73.6087 22.9154C73.6059 22.9265 73.6005 22.9368 73.5928 22.9454C73.5832 22.9551 73.5715 22.9624 73.5586 22.9669C73.5393 22.974 73.5191 22.9787 73.4986 22.9807C73.4681 22.984 73.4373 22.9855 73.4066 22.9852C73.3759 22.9856 73.3451 22.9841 73.3146 22.9807C73.2958 22.9789 73.2774 22.9742 73.26 22.9669C73.2494 22.9629 73.2406 22.9552 73.2351 22.9454C73.2318 22.9356 73.2318 22.9251 73.2351 22.9154L73.6416 20.868C73.6433 20.8569 73.6481 20.8465 73.6554 20.838C73.6648 20.8277 73.6765 20.8198 73.6896 20.8152C73.7089 20.8081 73.7291 20.8035 73.7496 20.8014C73.7809 20.7981 73.8125 20.7966 73.844 20.7969C73.8741 20.7965 73.9041 20.798 73.934 20.8014C73.9527 20.8033 73.9711 20.8079 73.9885 20.8152C73.9994 20.8194 74.0082 20.8276 74.0134 20.838C74.0173 20.8475 74.0184 20.8579 74.0167 20.868L73.6087 22.9154ZM76.3019 21.3207C76.302 21.3732 76.2989 21.4256 76.2929 21.4778C76.2869 21.5293 76.2786 21.5824 76.268 21.637L76.012 22.9154C76.0093 22.9263 76.0043 22.9366 75.9973 22.9454C75.9879 22.9553 75.9761 22.9628 75.9631 22.9669C75.9437 22.9739 75.9236 22.9785 75.9031 22.9807C75.8722 22.9841 75.841 22.9856 75.8099 22.9852C75.7798 22.9856 75.7498 22.9841 75.7199 22.9807C75.7012 22.9789 75.6828 22.9742 75.6654 22.9669C75.6548 22.9629 75.646 22.9552 75.6405 22.9454C75.6367 22.9358 75.6356 22.9255 75.6372 22.9154L75.8896 21.6508C75.8999 21.6058 75.9071 21.5603 75.9112 21.5144C75.915 21.4704 75.9169 21.4317 75.9169 21.3983C75.9204 21.3193 75.8994 21.2411 75.857 21.1744C75.8338 21.1446 75.8036 21.1212 75.769 21.1062C75.7344 21.0913 75.6966 21.0853 75.6591 21.0889C75.5723 21.0906 75.4873 21.1145 75.4123 21.1582C75.3239 21.2079 75.2447 21.2725 75.1782 21.3492C75.1017 21.4369 75.0367 21.534 74.9848 21.6382C74.9268 21.7528 74.885 21.8749 74.8607 22.001L74.679 22.9154C74.6762 22.9265 74.6708 22.9368 74.6631 22.9454C74.6535 22.9551 74.6418 22.9624 74.6289 22.9669C74.6096 22.974 74.5895 22.9787 74.569 22.9807C74.5384 22.984 74.5077 22.9855 74.4769 22.9852C74.4462 22.9856 74.4154 22.9841 74.3849 22.9807C74.3661 22.9789 74.3477 22.9742 74.3303 22.9669C74.3197 22.9629 74.3109 22.9552 74.3054 22.9454C74.3021 22.9356 74.3021 22.9251 74.3054 22.9154L74.7171 20.8659C74.7186 20.855 74.7229 20.8446 74.7297 20.8359C74.7381 20.8256 74.749 20.8177 74.7614 20.8131C74.7789 20.8063 74.7973 20.802 74.816 20.8005C74.8421 20.7981 74.8683 20.797 74.8946 20.7972C74.9208 20.7969 74.947 20.798 74.9731 20.8005C74.9896 20.8017 75.0058 20.806 75.0208 20.8131C75.0307 20.8176 75.0384 20.8258 75.0424 20.8359C75.0455 20.8455 75.0464 20.8558 75.0448 20.8659L74.9674 21.2556C74.9959 21.1956 75.0335 21.1404 75.0789 21.0919C75.1337 21.0316 75.1956 20.9781 75.2633 20.9327C75.3366 20.8834 75.4157 20.8431 75.4987 20.8128C75.5842 20.781 75.6748 20.7648 75.7661 20.7651C75.8534 20.7624 75.9403 20.7784 76.021 20.8119C76.0839 20.8388 76.1398 20.8799 76.1844 20.9319C76.2289 20.9838 76.2609 21.0454 76.2779 21.1117C76.2955 21.1799 76.304 21.2502 76.3031 21.3207H76.3019ZM78.3628 23.0767C78.3423 23.1886 78.3031 23.2962 78.2468 23.3951C78.1947 23.4841 78.1245 23.5612 78.0408 23.6214C77.9509 23.6843 77.8503 23.7301 77.744 23.7566C77.6166 23.7885 77.4856 23.8039 77.3542 23.8022C77.2383 23.8033 77.1227 23.7907 77.0097 23.7647C76.923 23.746 76.8392 23.7158 76.7606 23.6748C76.7419 23.6637 76.7259 23.6485 76.7138 23.6304C76.7048 23.6133 76.7004 23.594 76.7012 23.5747C76.7012 23.5655 76.7012 23.5526 76.7012 23.536C76.702 23.5191 76.7043 23.5024 76.7081 23.4859C76.7119 23.4693 76.7165 23.4518 76.7219 23.4334C76.7267 23.4164 76.7336 23.4 76.7423 23.3846C76.7496 23.3711 76.7599 23.3594 76.7723 23.3504C76.7836 23.3423 76.7971 23.3379 76.811 23.3378C76.8354 23.3399 76.8589 23.3481 76.8793 23.3618C76.9146 23.3817 76.9511 23.3995 76.9884 23.4152C77.0433 23.4379 77.1 23.4562 77.1578 23.4697C77.2396 23.4879 77.3232 23.4962 77.407 23.4946C77.4817 23.4955 77.5562 23.4871 77.6288 23.4697C77.6904 23.455 77.749 23.4297 77.8018 23.3948C77.8506 23.3616 77.8916 23.3181 77.9218 23.2674C77.9549 23.2102 77.9784 23.1479 77.991 23.083C78.0168 22.9451 78.0426 22.8305 78.0684 22.7394C78.0941 22.6482 78.1153 22.5777 78.1319 22.5277C78.1032 22.5904 78.064 22.6477 78.0159 22.6971C77.9604 22.7561 77.8986 22.8088 77.8315 22.8542C77.7603 22.9027 77.6831 22.9417 77.6019 22.9702C77.5201 22.9995 77.4339 23.0145 77.347 23.0146C77.2476 23.0175 77.1488 22.9981 77.058 22.9576C76.9825 22.9225 76.9171 22.8689 76.8679 22.8017C76.8182 22.7314 76.783 22.6518 76.7645 22.5676C76.7426 22.4717 76.732 22.3736 76.7327 22.2753C76.7336 22.1759 76.7419 22.0766 76.7576 21.9785C76.775 21.8657 76.8016 21.7546 76.8373 21.6463C76.8742 21.5339 76.921 21.425 76.9774 21.321C77.0326 21.2178 77.1019 21.1229 77.1833 21.0389C77.2635 20.9563 77.3578 20.8889 77.4618 20.8398C77.5742 20.7883 77.6966 20.7627 77.8201 20.7648C77.9409 20.7614 78.0605 20.7896 78.167 20.8467C78.2668 20.9043 78.3545 20.9808 78.4251 21.0718L78.4683 20.865C78.4718 20.8524 78.4785 20.841 78.4877 20.8318C78.4969 20.8227 78.5083 20.816 78.5208 20.8125C78.5644 20.7999 78.6098 20.7946 78.6551 20.7966C78.6805 20.7963 78.7059 20.7974 78.7312 20.7999C78.7481 20.8013 78.7647 20.8055 78.7801 20.8125C78.7852 20.8146 78.7899 20.8177 78.7938 20.8216C78.7977 20.8255 78.8008 20.8302 78.8029 20.8353C78.8061 20.8449 78.8069 20.8552 78.8053 20.8653L78.3628 23.0767ZM78.3277 21.4025C78.2676 21.3092 78.189 21.2291 78.0968 21.1672C78.0134 21.1149 77.9165 21.0879 77.818 21.0895C77.7407 21.0884 77.6645 21.108 77.5974 21.1465C77.5307 21.1854 77.4718 21.2362 77.4235 21.2964C77.3703 21.3631 77.3256 21.4361 77.2904 21.5138C77.2528 21.5948 77.222 21.6788 77.1983 21.765C77.1752 21.8487 77.1576 21.9338 77.1458 22.0198C77.1351 22.0956 77.1294 22.172 77.1288 22.2486C77.1283 22.309 77.134 22.3693 77.1458 22.4285C77.1552 22.4781 77.1737 22.5256 77.2004 22.5685C77.225 22.6067 77.2585 22.6383 77.2981 22.6605C77.3432 22.6845 77.3937 22.6963 77.4448 22.6947C77.533 22.6934 77.6195 22.6696 77.696 22.6255C77.7849 22.5754 77.8645 22.5103 77.9314 22.4333C78.0081 22.3455 78.0731 22.248 78.1247 22.1434C78.1824 22.028 78.2246 21.9055 78.2503 21.7791L78.3277 21.4025ZM83.1454 22.9154C83.144 22.9266 83.1392 22.937 83.1316 22.9454C83.1216 22.9552 83.1095 22.9626 83.0962 22.9669C83.0768 22.9738 83.0567 22.9785 83.0362 22.9807C83.0057 22.984 82.9749 22.9855 82.9442 22.9852C82.9142 22.9856 82.8841 22.9841 82.8543 22.9807C82.8355 22.9789 82.8171 22.9742 82.7997 22.9669C82.7889 22.9627 82.7798 22.9551 82.7736 22.9454C82.7691 22.936 82.7682 22.9253 82.7712 22.9154L83.0227 21.6505C83.0303 21.6065 83.0367 21.5648 83.0419 21.5254C83.0473 21.4862 83.05 21.4466 83.05 21.407C83.0536 21.3258 83.0337 21.2452 82.9928 21.175C82.9707 21.1448 82.9412 21.121 82.907 21.1058C82.8729 21.0907 82.8353 21.0847 82.7982 21.0886C82.715 21.0907 82.6339 21.1146 82.5628 21.1579C82.4761 21.2087 82.3982 21.2732 82.332 21.3489C82.255 21.4362 82.19 21.5334 82.1386 21.6379C82.0813 21.7527 82.04 21.8747 82.0157 22.0007L81.8337 22.9151C81.8309 22.9262 81.8255 22.9365 81.8178 22.9451C81.8079 22.9549 81.7957 22.9623 81.7824 22.9666C81.763 22.9735 81.7429 22.9782 81.7225 22.9804C81.6919 22.9837 81.6612 22.9852 81.6304 22.9849C81.6004 22.9853 81.5703 22.9838 81.5405 22.9804C81.5221 22.9787 81.5041 22.974 81.4871 22.9666C81.4768 22.9621 81.4681 22.9546 81.4622 22.9451C81.4577 22.9358 81.4561 22.9253 81.4577 22.9151L81.7102 21.6505C81.7206 21.6063 81.7278 21.5614 81.7318 21.5162C81.7356 21.4722 81.7375 21.4312 81.7375 21.3932C81.7413 21.3152 81.7215 21.2379 81.6805 21.1714C81.6579 21.1423 81.6283 21.1194 81.5945 21.1049C81.5607 21.0904 81.5237 21.0847 81.4871 21.0883C81.4035 21.0901 81.3219 21.114 81.2506 21.1576C81.1644 21.2087 81.0868 21.2731 81.0209 21.3486C80.9439 21.4359 80.8789 21.5331 80.8275 21.6376C80.7703 21.7524 80.7289 21.8744 80.7046 22.0004L80.5226 22.9148C80.5199 22.9259 80.5144 22.9362 80.5067 22.9448C80.4971 22.9545 80.4854 22.9618 80.4726 22.9663C80.4532 22.9734 80.4331 22.9781 80.4126 22.9801C80.382 22.9834 80.3513 22.9849 80.3205 22.9846C80.2898 22.985 80.2591 22.9835 80.2285 22.9801C80.2097 22.9783 80.1913 22.9736 80.1739 22.9663C80.1634 22.9623 80.1546 22.9546 80.1491 22.9448C80.1457 22.935 80.1457 22.9245 80.1491 22.9148L80.5607 20.8653C80.5622 20.8543 80.5666 20.844 80.5733 20.8353C80.5817 20.825 80.5926 20.8171 80.6051 20.8125C80.6226 20.8057 80.6409 20.8014 80.6596 20.7999C80.6857 20.7975 80.712 20.7964 80.7382 20.7966C80.7644 20.7963 80.7906 20.7974 80.8167 20.7999C80.8333 20.8011 80.8494 20.8054 80.8644 20.8125C80.8743 20.817 80.882 20.8252 80.886 20.8353C80.8892 20.8449 80.89 20.8552 80.8884 20.8653L80.811 21.255C80.8397 21.1948 80.8778 21.1396 80.9238 21.0913C81.0376 20.9676 81.1785 20.8718 81.3354 20.8116C81.4163 20.7801 81.5023 20.764 81.5891 20.7639C81.6687 20.7621 81.7481 20.7748 81.8232 20.8014C81.8835 20.8233 81.9383 20.8582 81.9836 20.9036C82.0253 20.948 82.0563 21.0013 82.0741 21.0595C82.0945 21.1233 82.1067 21.1894 82.1104 21.2562C82.1458 21.1964 82.1877 21.1407 82.2354 21.0901C82.2907 21.0307 82.3526 20.9777 82.4198 20.9321C82.4908 20.8835 82.5672 20.8433 82.6474 20.8122C82.7271 20.7808 82.812 20.7646 82.8977 20.7645C82.9847 20.7619 83.0713 20.7766 83.1526 20.8077C83.2165 20.8335 83.2735 20.8741 83.3187 20.9261C83.3612 20.9771 83.3919 21.0369 83.4086 21.1012C83.4274 21.1724 83.4365 21.2458 83.4359 21.3195C83.436 21.372 83.433 21.4244 83.4269 21.4766C83.4209 21.5281 83.4126 21.5812 83.402 21.6358L83.1454 22.9154ZM85.9069 21.5458C85.9067 21.6611 85.896 21.7761 85.8752 21.8894C85.8543 22.005 85.822 22.1182 85.7786 22.2273C85.7356 22.3353 85.6803 22.4379 85.6137 22.5331C85.548 22.6277 85.4687 22.712 85.3784 22.7835C85.2858 22.856 85.1821 22.9132 85.0714 22.9529C84.9483 22.996 84.8186 23.0172 84.6882 23.0155C84.5615 23.0182 84.4351 23.0005 84.314 22.963C84.218 22.9329 84.1303 22.8808 84.058 22.8107C83.9899 22.7418 83.9393 22.6576 83.9102 22.5652C83.8769 22.4585 83.8609 22.3472 83.8625 22.2354C83.8624 22.1201 83.8724 22.0051 83.8922 21.8915C83.9323 21.661 84.0215 21.4419 84.1539 21.249C84.2188 21.1539 84.2978 21.0692 84.3881 20.9978C84.4807 20.9252 84.5843 20.868 84.6951 20.8284C84.8182 20.7852 84.9479 20.764 85.0783 20.7657C85.2051 20.7629 85.3315 20.7809 85.4524 20.8191C85.5486 20.8501 85.6365 20.9026 85.7094 20.9726C85.7784 21.0412 85.8298 21.1254 85.8593 21.2181C85.8924 21.3242 85.9085 21.4348 85.9069 21.5458ZM85.5112 21.5692C85.512 21.5002 85.5039 21.4314 85.4872 21.3645C85.474 21.307 85.4464 21.254 85.407 21.2102C85.3676 21.1664 85.3177 21.1333 85.262 21.1141C85.1101 21.0639 84.9452 21.0691 84.7967 21.1288C84.7232 21.1609 84.6558 21.2055 84.5977 21.2607C84.5378 21.318 84.4866 21.3835 84.4454 21.4553C84.4016 21.5307 84.3657 21.6103 84.3383 21.693C84.3101 21.7776 84.2892 21.8643 84.2757 21.9524C84.2622 22.0386 84.2554 22.1257 84.2553 22.2129C84.2544 22.282 84.2627 22.3509 84.2802 22.4177C84.2949 22.4747 84.3225 22.5276 84.3608 22.5724C84.4002 22.6163 84.4499 22.6499 84.5053 22.6701C84.6576 22.7203 84.8228 22.7149 84.9715 22.6548C85.0448 22.6224 85.1118 22.5774 85.1694 22.5217C85.229 22.464 85.2803 22.3982 85.3217 22.3262C85.3656 22.2502 85.4015 22.1699 85.4287 22.0864C85.4567 22.0018 85.4777 21.9151 85.4914 21.8271C85.5046 21.7417 85.5112 21.6555 85.5112 21.5692ZM87.7898 20.8704C87.7893 20.8822 87.7882 20.894 87.7865 20.9057L87.7784 20.9657C87.7751 20.9894 87.7705 21.0129 87.7646 21.0362C87.7589 21.0592 87.7513 21.0816 87.7418 21.1033C87.7341 21.1213 87.7245 21.1385 87.7133 21.1546C87.7099 21.1604 87.7051 21.1653 87.6993 21.1689C87.6936 21.1724 87.6871 21.1745 87.6803 21.175C87.6667 21.1746 87.6532 21.1719 87.6404 21.1669C87.6261 21.1615 87.6102 21.1551 87.5928 21.1477C87.5486 21.1288 87.5008 21.1195 87.4528 21.1204C87.3875 21.1248 87.325 21.1482 87.2729 21.1876C87.1978 21.2393 87.1307 21.3017 87.0738 21.3728C87.0034 21.459 86.9431 21.5528 86.8939 21.6526C86.8388 21.7635 86.7984 21.8813 86.774 22.0027L86.5941 22.9148C86.5914 22.9259 86.5859 22.9362 86.5782 22.9448C86.5686 22.9545 86.5569 22.9618 86.544 22.9663C86.5247 22.9734 86.5046 22.9781 86.4841 22.9801C86.4535 22.9834 86.4228 22.9849 86.392 22.9846C86.3613 22.985 86.3305 22.9835 86.3 22.9801C86.2812 22.9783 86.2628 22.9736 86.2454 22.9663C86.2349 22.9623 86.226 22.9546 86.2205 22.9448C86.2172 22.935 86.2172 22.9245 86.2205 22.9148L86.6277 20.8653C86.6294 20.8542 86.6342 20.8438 86.6415 20.8353C86.6508 20.825 86.6625 20.8171 86.6756 20.8125C86.6936 20.8058 86.7123 20.8015 86.7314 20.7999C86.7575 20.7975 86.7837 20.7964 86.81 20.7966C86.8368 20.7965 86.8636 20.7979 86.8903 20.8008C86.9068 20.802 86.923 20.8063 86.938 20.8134C86.9479 20.8179 86.9556 20.8261 86.9596 20.8362C86.9627 20.8458 86.9636 20.8561 86.962 20.8662L86.8873 21.2394C86.9228 21.1759 86.9639 21.1157 87.0102 21.0595C87.0565 21.004 87.1088 20.9537 87.1661 20.9096C87.2202 20.8677 87.2794 20.8329 87.3424 20.8062C87.3992 20.7815 87.4604 20.7683 87.5223 20.7675C87.5486 20.7676 87.5749 20.7695 87.6009 20.7732C87.6275 20.777 87.6521 20.7816 87.6749 20.787C87.6953 20.7917 87.7154 20.7978 87.7349 20.8053C87.7497 20.8105 87.7632 20.8187 87.7748 20.8293C87.7847 20.8406 87.7901 20.8553 87.7898 20.8704ZM89.7757 21.2865C89.7772 21.3854 89.752 21.4828 89.7028 21.5686C89.6472 21.6587 89.5687 21.7325 89.4753 21.7824C89.3515 21.8488 89.2179 21.8948 89.0795 21.9188C88.8889 21.9532 88.6955 21.9692 88.5018 21.9665H88.262C88.2516 22.0145 88.2444 22.0632 88.2404 22.1122C88.2366 22.1592 88.2347 22.2031 88.2347 22.2441C88.226 22.3703 88.2664 22.495 88.3474 22.5922C88.3967 22.6363 88.4546 22.6697 88.5174 22.6903C88.5803 22.711 88.6467 22.7184 88.7126 22.7121C88.8003 22.7129 88.8879 22.7057 88.9743 22.6905C89.0517 22.6761 89.1187 22.6605 89.1755 22.6437C89.2322 22.627 89.2789 22.6114 89.3155 22.597C89.3392 22.586 89.3645 22.5787 89.3904 22.5754C89.3963 22.5751 89.4021 22.5763 89.4073 22.5789C89.4126 22.5815 89.4171 22.5853 89.4204 22.5901C89.428 22.6027 89.4315 22.6174 89.4306 22.6321C89.4304 22.6503 89.4289 22.6686 89.4261 22.6866C89.4229 22.7085 89.4183 22.7301 89.4123 22.7514C89.4064 22.773 89.3984 22.794 89.3883 22.814C89.3796 22.8321 89.3685 22.8489 89.3554 22.8641C89.3271 22.8884 89.2943 22.9069 89.2588 22.9184C89.205 22.938 89.1499 22.9539 89.0939 22.966C89.0246 22.9814 88.9546 22.9932 88.8841 23.0014C88.8086 23.0106 88.7326 23.0152 88.6565 23.0152C88.5366 23.0172 88.417 23.0019 88.3015 22.9696C88.2072 22.9433 88.1204 22.8954 88.0479 22.8296C87.9796 22.7645 87.9281 22.6837 87.898 22.5943C87.8626 22.4872 87.8456 22.3749 87.8479 22.2621C87.8486 22.1557 87.8582 22.0497 87.8764 21.9449C87.8958 21.8305 87.9259 21.7182 87.9663 21.6094C88.0077 21.4978 88.0611 21.3911 88.1255 21.291C88.1896 21.1901 88.2682 21.0992 88.3588 21.0212C88.452 20.9421 88.5576 20.8791 88.6715 20.8347C88.7992 20.786 88.9351 20.7621 89.0717 20.7642C89.1817 20.7615 89.2913 20.7776 89.3958 20.8119C89.4757 20.8388 89.5497 20.8805 89.6141 20.9348C89.6677 20.9804 89.7102 21.0376 89.7382 21.1021C89.7632 21.1604 89.7762 21.2231 89.7763 21.2865H89.7757ZM89.3913 21.3207C89.3924 21.2845 89.3847 21.2486 89.3691 21.216C89.3534 21.1833 89.3302 21.1549 89.3014 21.133C89.2255 21.0807 89.1341 21.0554 89.0421 21.0613C88.9522 21.0596 88.8629 21.0771 88.7803 21.1126C88.7056 21.1461 88.6374 21.1927 88.5792 21.2502C88.5196 21.3095 88.4691 21.3773 88.4292 21.4514C88.3873 21.5285 88.3533 21.6096 88.3279 21.6936H88.56C88.6937 21.6955 88.8274 21.6855 88.9593 21.6637C89.0485 21.6497 89.1351 21.6225 89.2163 21.583C89.2721 21.5566 89.3193 21.515 89.3527 21.4631C89.3783 21.42 89.3918 21.3708 89.3919 21.3207H89.3913ZM93.169 21.5072C93.1681 21.6066 93.1598 21.7058 93.1441 21.804C93.1273 21.917 93.1013 22.0285 93.0664 22.1374C93.0297 22.2502 92.9829 22.3595 92.9264 22.4639C92.8714 22.5667 92.802 22.6613 92.7204 22.7448C92.6402 22.8266 92.5458 22.8932 92.4419 22.9415C92.3294 22.9923 92.2071 23.0176 92.0836 23.0155C92.0209 23.0162 91.9583 23.0093 91.8972 22.9951C91.8435 22.9824 91.7916 22.9632 91.7425 22.9382C91.6964 22.9144 91.6529 22.8858 91.6129 22.8527C91.5734 22.82 91.5369 22.7839 91.5038 22.7448L91.3095 23.7279C91.3065 23.7387 91.3014 23.7489 91.2945 23.7578C91.2858 23.7683 91.2744 23.7762 91.2616 23.7806C91.2422 23.7877 91.2221 23.7924 91.2016 23.7944C91.1702 23.7978 91.1387 23.7993 91.1072 23.7989C91.0779 23.7992 91.0487 23.7977 91.0196 23.7944C91.0005 23.7925 90.9817 23.7878 90.9639 23.7806C90.9526 23.7767 90.9432 23.7685 90.9378 23.7578C90.9339 23.7477 90.9328 23.7368 90.9345 23.7261L91.5101 20.8644C91.5118 20.8521 91.517 20.8407 91.5251 20.8314C91.5332 20.822 91.5438 20.8153 91.5557 20.8119C91.6 20.799 91.6461 20.7937 91.6921 20.796C91.7179 20.7957 91.7437 20.7968 91.7694 20.7993C91.7858 20.8008 91.8019 20.8046 91.8171 20.8107C91.8222 20.8125 91.8269 20.8153 91.8309 20.819C91.8348 20.8227 91.8379 20.8273 91.8399 20.8323C91.8431 20.8426 91.8439 20.8534 91.8423 20.8641L91.765 21.2538C91.792 21.1949 91.8285 21.1407 91.8729 21.0934C91.9272 21.0335 91.9883 20.9801 92.0549 20.9342C92.1278 20.8837 92.2069 20.8428 92.2902 20.8125C92.3746 20.7811 92.464 20.7649 92.5541 20.7648C92.6541 20.7619 92.7534 20.7824 92.844 20.8248C92.919 20.8616 92.9842 20.9157 93.0341 20.9828C93.0845 21.0529 93.1201 21.1326 93.1387 21.2169C93.1604 21.3121 93.1709 21.4095 93.1702 21.5072H93.169ZM92.7753 21.532C92.7758 21.4717 92.7701 21.4114 92.7582 21.3522C92.7487 21.3023 92.7302 21.2545 92.7037 21.2112C92.6796 21.1732 92.6459 21.1422 92.6059 21.1213C92.5593 21.0986 92.5078 21.0877 92.456 21.0895C92.3682 21.0911 92.2821 21.1146 92.2057 21.1579C92.1161 21.207 92.0361 21.2717 91.9691 21.3489C91.807 21.5353 91.6971 21.7613 91.6507 22.0039L91.5779 22.3787C91.6373 22.4729 91.7155 22.5538 91.8075 22.6165C91.8904 22.6691 91.9869 22.6964 92.0852 22.695C92.1621 22.6959 92.2378 22.6762 92.3046 22.638C92.3721 22.5988 92.4315 22.5471 92.4797 22.4857C92.5322 22.4193 92.5765 22.3467 92.6116 22.2696C92.6856 22.1087 92.7354 21.9377 92.7594 21.7623C92.7702 21.6861 92.7759 21.6093 92.7765 21.5323L92.7753 21.532ZM95.5663 21.5458C95.566 21.6611 95.5554 21.7761 95.5345 21.8894C95.5137 22.005 95.4813 22.1182 95.4379 22.2273C95.3949 22.3353 95.3396 22.4379 95.273 22.5331C95.2073 22.6277 95.128 22.712 95.0377 22.7835C94.9451 22.856 94.8414 22.9132 94.7307 22.9529C94.6076 22.996 94.4779 23.0172 94.3475 23.0155C94.2208 23.0182 94.0945 23.0005 93.9734 22.963C93.8773 22.9329 93.7896 22.8808 93.7173 22.8107C93.6493 22.7418 93.5986 22.6576 93.5695 22.5652C93.5363 22.4585 93.5202 22.3472 93.5218 22.2354C93.5219 22.1202 93.5319 22.0053 93.5518 21.8918C93.5926 21.661 93.6827 21.4418 93.816 21.249C93.8808 21.1539 93.9598 21.0692 94.0501 20.9978C94.1422 20.9253 94.2454 20.868 94.3556 20.8281C94.4787 20.7849 94.6084 20.7637 94.7388 20.7654C94.8656 20.7626 94.992 20.7806 95.1129 20.8188C95.2091 20.8498 95.297 20.9023 95.3699 20.9723C95.4389 21.0409 95.4903 21.1251 95.5198 21.2178C95.5531 21.3239 95.5692 21.4347 95.5678 21.5458H95.5663ZM95.1705 21.5686C95.1713 21.4996 95.1632 21.4308 95.1465 21.3639C95.1333 21.3064 95.1057 21.2534 95.0663 21.2096C95.0269 21.1658 94.9771 21.1327 94.9214 21.1135C94.7694 21.0633 94.6046 21.0685 94.4561 21.1282C94.3825 21.1603 94.3152 21.2049 94.257 21.2601C94.1972 21.3174 94.1459 21.3829 94.1047 21.4547C94.0609 21.5301 94.0251 21.6097 93.9976 21.6924C93.9695 21.777 93.9485 21.8637 93.935 21.9518C93.9216 22.038 93.9147 22.1251 93.9146 22.2123C93.9137 22.2814 93.9221 22.3503 93.9395 22.4171C93.9542 22.4741 93.9818 22.527 94.0201 22.5718C94.0596 22.6157 94.1092 22.6493 94.1646 22.6695C94.3166 22.7197 94.4814 22.7145 94.6299 22.6548C94.7032 22.6224 94.7702 22.5774 94.8278 22.5217C94.8875 22.464 94.9387 22.3982 94.9801 22.3262C95.0241 22.2502 95.0599 22.1699 95.0872 22.0864C95.1152 22.0018 95.1361 21.9151 95.1498 21.8271C95.1638 21.7418 95.1712 21.6556 95.172 21.5692L95.1705 21.5686ZM97.4338 20.9795C97.4332 20.9996 97.4309 21.0197 97.4269 21.0395C97.4224 21.0646 97.416 21.0893 97.4077 21.1135C97.4004 21.1347 97.3903 21.1549 97.3777 21.1735C97.374 21.1804 97.3687 21.1863 97.3621 21.1907C97.3556 21.195 97.3481 21.1977 97.3402 21.1984C97.3172 21.1968 97.2949 21.1894 97.2755 21.1768C97.2505 21.1624 97.2198 21.1461 97.1834 21.1279C97.1414 21.1075 97.0977 21.0907 97.0527 21.0778C96.9942 21.0617 96.9336 21.054 96.8728 21.055C96.8125 21.054 96.7524 21.0636 96.6954 21.0835C96.6474 21.1003 96.6034 21.1267 96.5658 21.1609C96.5318 21.1922 96.5047 21.2301 96.4861 21.2724C96.468 21.3136 96.4587 21.3581 96.4588 21.4031C96.4581 21.4309 96.4631 21.4585 96.4734 21.4842C96.4837 21.51 96.4991 21.5334 96.5188 21.553C96.563 21.5963 96.6136 21.6327 96.6687 21.661C96.7286 21.6927 96.7942 21.7242 96.8653 21.7554C96.9346 21.7858 97.0002 21.8239 97.0608 21.869C97.1202 21.9133 97.171 21.9681 97.2107 22.0306C97.2532 22.1025 97.274 22.185 97.2707 22.2684C97.2715 22.3707 97.2501 22.4719 97.208 22.5652C97.1666 22.6565 97.1051 22.7374 97.0281 22.8017C96.9444 22.8708 96.8482 22.9233 96.7448 22.9564C96.625 22.995 96.4998 23.0138 96.374 23.0122C96.3066 23.0125 96.2393 23.0072 96.1728 22.9963C96.115 22.9869 96.0579 22.9732 96.0022 22.9553C95.9569 22.9409 95.9131 22.9222 95.8715 22.8995C95.8413 22.8834 95.813 22.864 95.7872 22.8416C95.7761 22.831 95.7673 22.8182 95.7611 22.8041C95.7554 22.7892 95.7527 22.7733 95.753 22.7574C95.753 22.7452 95.7538 22.7308 95.7554 22.7142C95.7571 22.6965 95.7601 22.679 95.7644 22.6617C95.769 22.6435 95.7739 22.6261 95.7791 22.6093C95.784 22.5935 95.7904 22.5782 95.7983 22.5637C95.8046 22.5519 95.8123 22.5408 95.8211 22.5307C95.8245 22.5268 95.8286 22.5236 95.8334 22.5214C95.8381 22.5192 95.8432 22.5181 95.8484 22.5181C95.873 22.5208 95.8962 22.5313 95.9143 22.5481C95.9464 22.5727 95.9803 22.5947 96.0157 22.6141C96.0654 22.641 96.1176 22.6631 96.1716 22.68C96.2469 22.7021 96.3252 22.7122 96.4036 22.71C96.4764 22.7118 96.5491 22.7017 96.6186 22.68C96.6734 22.6627 96.7243 22.6349 96.7685 22.5982C96.8067 22.5656 96.8367 22.5246 96.856 22.4783C96.875 22.4329 96.8847 22.3841 96.8845 22.3349C96.8855 22.3063 96.8808 22.2777 96.8705 22.2509C96.8602 22.2241 96.8445 22.1996 96.8246 22.179C96.7803 22.1354 96.7298 22.0986 96.6747 22.0699C96.6147 22.0373 96.5498 22.0051 96.4801 21.9734C96.4117 21.9423 96.3465 21.9045 96.2855 21.8606C96.2259 21.8176 96.175 21.7636 96.1356 21.7014C96.093 21.6289 96.0722 21.5456 96.0756 21.4616C96.0747 21.3666 96.0944 21.2725 96.1335 21.1858C96.1726 21.0992 96.2301 21.0221 96.302 20.96C96.3781 20.8948 96.4662 20.845 96.5613 20.8134C96.6695 20.7773 96.7828 20.7596 96.8968 20.7609C96.9529 20.7608 97.0088 20.7655 97.0641 20.7747C97.1147 20.783 97.1648 20.7944 97.214 20.8089C97.2547 20.8207 97.2943 20.8359 97.3325 20.8545C97.3599 20.8672 97.3852 20.8841 97.4074 20.9045C97.4175 20.914 97.4253 20.9257 97.4301 20.9387C97.435 20.9517 97.4367 20.9657 97.4353 20.9795H97.4338ZM99.2467 20.9795C99.2462 20.9996 99.2439 21.0197 99.2399 21.0395C99.2353 21.0646 99.2289 21.0893 99.2207 21.1135C99.2133 21.1347 99.2032 21.1549 99.1907 21.1735C99.187 21.1804 99.1817 21.1863 99.1751 21.1907C99.1686 21.195 99.161 21.1977 99.1532 21.1984C99.1301 21.1968 99.1078 21.1894 99.0884 21.1768C99.0635 21.1624 99.0328 21.1461 98.9964 21.1279C98.9543 21.1075 98.9106 21.0908 98.8657 21.0778C98.8071 21.0617 98.7465 21.054 98.6858 21.055C98.6254 21.054 98.5653 21.0636 98.5083 21.0835C98.4604 21.1003 98.4163 21.1267 98.3788 21.1609C98.3448 21.1922 98.3176 21.2301 98.299 21.2724C98.281 21.3136 98.2717 21.3581 98.2718 21.4031C98.2711 21.4309 98.2761 21.4585 98.2864 21.4842C98.2967 21.51 98.3121 21.5334 98.3317 21.553C98.376 21.5963 98.4265 21.6327 98.4816 21.661C98.5416 21.6927 98.6071 21.7242 98.6783 21.7554C98.7476 21.7858 98.8131 21.8239 98.8738 21.869C98.9332 21.9133 98.984 21.9681 99.0237 22.0306C99.0661 22.1025 99.0869 22.185 99.0836 22.2684C99.0844 22.3707 99.0631 22.4719 99.021 22.5652C98.9795 22.6565 98.9181 22.7374 98.8411 22.8017C98.7573 22.8708 98.6612 22.9233 98.5578 22.9564C98.438 22.995 98.3127 23.0138 98.1869 23.0122C98.1195 23.0125 98.0522 23.0072 97.9857 22.9963C97.9279 22.9869 97.8709 22.9732 97.8151 22.9553C97.7699 22.9409 97.7261 22.9222 97.6844 22.8995C97.6543 22.8834 97.626 22.864 97.6002 22.8416C97.5891 22.831 97.5802 22.8182 97.5741 22.8041C97.5684 22.7892 97.5656 22.7733 97.566 22.7574C97.566 22.7452 97.5668 22.7308 97.5684 22.7142C97.57 22.6965 97.5731 22.679 97.5774 22.6617C97.582 22.6435 97.5869 22.6261 97.5921 22.6093C97.597 22.5935 97.6034 22.5782 97.6113 22.5637C97.6176 22.5519 97.6252 22.5408 97.6341 22.5307C97.6374 22.5268 97.6416 22.5236 97.6463 22.5214C97.651 22.5192 97.6562 22.5181 97.6613 22.5181C97.686 22.5208 97.7091 22.5313 97.7273 22.5481C97.7593 22.5727 97.7932 22.5947 97.8286 22.6141C97.8784 22.641 97.9306 22.6631 97.9845 22.68C98.0598 22.7021 98.1382 22.7122 98.2166 22.71C98.2894 22.7118 98.362 22.7017 98.4316 22.68C98.4863 22.6627 98.5373 22.6349 98.5815 22.5982C98.6197 22.5656 98.6497 22.5246 98.669 22.4783C98.688 22.4329 98.6977 22.3841 98.6975 22.3349C98.6985 22.3063 98.6937 22.2777 98.6834 22.2509C98.6731 22.2241 98.6575 22.1996 98.6375 22.179C98.5933 22.1354 98.5427 22.0986 98.4876 22.0699C98.4277 22.0373 98.3628 22.0051 98.293 21.9734C98.2246 21.9423 98.1595 21.9045 98.0985 21.8606C98.0388 21.8176 97.9879 21.7636 97.9486 21.7014C97.906 21.6289 97.8852 21.5456 97.8886 21.4616C97.8876 21.3666 97.9074 21.2725 97.9464 21.1858C97.9855 21.0992 98.043 21.0221 98.115 20.96C98.1911 20.8948 98.2792 20.845 98.3743 20.8134C98.4824 20.7773 98.5958 20.7596 98.7098 20.7609C98.7658 20.7608 98.8218 20.7655 98.8771 20.7747C98.9277 20.783 98.9778 20.7944 99.027 20.8089C99.0677 20.8207 99.1073 20.8359 99.1454 20.8545C99.1728 20.8672 99.1981 20.8841 99.2204 20.9045C99.2305 20.914 99.2383 20.9257 99.2431 20.9387C99.2479 20.9517 99.2497 20.9657 99.2482 20.9795H99.2467ZM100.473 20.1787C100.467 20.2154 100.457 20.2514 100.443 20.2857C100.432 20.3125 100.414 20.3362 100.392 20.355C100.368 20.3734 100.341 20.3862 100.312 20.3925C100.274 20.4007 100.235 20.4045 100.196 20.4039C100.159 20.4046 100.123 20.4008 100.087 20.3925C100.062 20.3873 100.04 20.3741 100.023 20.355C100.009 20.3348 100.001 20.3106 100 20.2857C99.9995 20.2498 100.002 20.2139 100.009 20.1787C100.017 20.1422 100.028 20.1067 100.044 20.0729C100.056 20.0464 100.074 20.0225 100.095 20.0024C100.117 19.9826 100.144 19.9692 100.173 19.9637C100.212 19.9563 100.251 19.9529 100.289 19.9535C100.326 19.9528 100.362 19.9562 100.397 19.9637C100.422 19.9688 100.445 19.9824 100.461 20.0024C100.476 20.0229 100.484 20.0475 100.485 20.0729C100.486 20.1084 100.482 20.144 100.474 20.1787H100.473ZM99.885 22.9154C99.8823 22.9265 99.8768 22.9368 99.8692 22.9454C99.8595 22.9551 99.8479 22.9624 99.835 22.9669C99.8156 22.974 99.7955 22.9787 99.775 22.9807C99.7444 22.984 99.7137 22.9855 99.683 22.9852C99.6522 22.9856 99.6215 22.9841 99.5909 22.9807C99.5722 22.9789 99.5538 22.9742 99.5364 22.9669C99.5258 22.9629 99.517 22.9552 99.5115 22.9454C99.5081 22.9356 99.5081 22.9251 99.5115 22.9154L99.9186 20.8683C99.9203 20.8572 99.9251 20.8468 99.9324 20.8383C99.9417 20.828 99.9535 20.8201 99.9666 20.8155C99.9859 20.8084 100.006 20.8038 100.027 20.8017C100.058 20.7984 100.089 20.7969 100.121 20.7972C100.151 20.7968 100.181 20.7983 100.211 20.8017C100.23 20.8036 100.248 20.8082 100.266 20.8155C100.276 20.8197 100.285 20.8279 100.29 20.8383C100.294 20.8478 100.295 20.8582 100.294 20.8683L99.885 22.9154ZM102.651 21.5063C102.65 21.6072 102.642 21.7079 102.626 21.8076C102.609 21.9204 102.582 22.0315 102.546 22.1398C102.508 22.2519 102.461 22.3607 102.406 22.4651C102.351 22.568 102.282 22.6623 102.2 22.7448C102.119 22.8258 102.024 22.892 101.92 22.9403C101.808 22.9909 101.687 23.0162 101.564 23.0143C101.443 23.0177 101.322 22.9912 101.214 22.937C101.113 22.8818 101.024 22.8058 100.954 22.7139L100.913 22.9142C100.912 22.9271 100.906 22.9392 100.897 22.9489C100.889 22.9587 100.877 22.9656 100.865 22.9687C100.821 22.9812 100.775 22.9866 100.729 22.9846C100.686 22.988 100.642 22.9818 100.602 22.9663C100.592 22.962 100.585 22.9542 100.58 22.9445C100.576 22.9348 100.576 22.9239 100.579 22.9139L101.184 19.8747C101.187 19.8632 101.192 19.8524 101.199 19.8429C101.208 19.8323 101.22 19.8244 101.233 19.8201C101.252 19.8132 101.273 19.8086 101.293 19.8063C101.324 19.803 101.356 19.8015 101.387 19.8018C101.417 19.8014 101.447 19.8029 101.477 19.8063C101.496 19.8084 101.514 19.813 101.532 19.8201C101.537 19.822 101.542 19.825 101.547 19.8289C101.551 19.8328 101.554 19.8376 101.557 19.8429C101.56 19.8532 101.561 19.864 101.559 19.8747L101.377 20.7891C101.37 20.8291 101.361 20.8701 101.35 20.912C101.339 20.954 101.328 20.9961 101.317 21.0383C101.306 21.08 101.294 21.1195 101.283 21.1567C101.271 21.1939 101.261 21.226 101.253 21.2532C101.282 21.1926 101.321 21.137 101.368 21.0883C101.423 21.029 101.485 20.9763 101.552 20.9312C101.624 20.8825 101.702 20.8422 101.783 20.8113C101.863 20.78 101.949 20.7639 102.035 20.7636C102.115 20.7618 102.194 20.7741 102.269 20.7999C102.33 20.8216 102.387 20.8543 102.436 20.8964C102.48 20.9355 102.517 20.9821 102.546 21.0341C102.573 21.0845 102.595 21.1379 102.611 21.1933C102.626 21.2465 102.636 21.3008 102.642 21.3558C102.648 21.406 102.651 21.4566 102.651 21.5072L102.651 21.5063ZM102.257 21.538C102.257 21.4909 102.253 21.4438 102.246 21.3971C102.239 21.3459 102.224 21.296 102.202 21.2493C102.18 21.2038 102.147 21.1644 102.106 21.1345C102.057 21.1011 101.998 21.0847 101.939 21.0877C101.851 21.0894 101.764 21.1136 101.688 21.1582C101.599 21.2089 101.519 21.2748 101.452 21.3528C101.375 21.4413 101.31 21.5391 101.257 21.6439C101.199 21.7592 101.157 21.8821 101.133 22.009L101.059 22.3865C101.118 22.4792 101.196 22.5583 101.288 22.6186C101.372 22.6691 101.468 22.695 101.566 22.6935C101.641 22.6945 101.714 22.6757 101.78 22.6389C101.845 22.6009 101.904 22.5515 101.953 22.4932C102.006 22.4298 102.051 22.3599 102.087 22.2852C102.125 22.2064 102.156 22.1245 102.181 22.0405C102.206 21.9559 102.225 21.8696 102.238 21.7824C102.25 21.7019 102.257 21.6207 102.258 21.5392L102.257 21.538ZM103.35 22.9154C103.347 22.9265 103.342 22.9368 103.334 22.9454C103.324 22.9551 103.313 22.9624 103.3 22.9669C103.281 22.974 103.26 22.9787 103.24 22.9807C103.209 22.984 103.179 22.9855 103.148 22.9852C103.117 22.9856 103.086 22.9841 103.056 22.9807C103.037 22.9789 103.019 22.9742 103.001 22.9669C102.991 22.9629 102.982 22.9552 102.976 22.9454C102.973 22.9356 102.973 22.9251 102.976 22.9154L103.581 19.8762C103.584 19.8647 103.589 19.8539 103.596 19.8444C103.605 19.8338 103.617 19.8259 103.63 19.8216C103.65 19.8147 103.67 19.8101 103.69 19.8078C103.722 19.8045 103.753 19.803 103.785 19.8033C103.815 19.803 103.845 19.8045 103.875 19.8078C103.893 19.8097 103.912 19.8143 103.929 19.8216C103.935 19.8236 103.939 19.8266 103.944 19.8305C103.948 19.8344 103.951 19.8392 103.953 19.8444C103.956 19.8547 103.957 19.8655 103.956 19.8762L103.35 22.9154ZM106 21.2868C106.001 21.3857 105.976 21.4831 105.927 21.5689C105.872 21.659 105.793 21.7328 105.7 21.7827C105.576 21.8491 105.442 21.8951 105.304 21.9191C105.113 21.9535 104.92 21.9695 104.726 21.9668H104.486C104.476 22.0148 104.469 22.0635 104.465 22.1125C104.461 22.1595 104.459 22.2034 104.459 22.2444C104.45 22.3706 104.491 22.4953 104.572 22.5925C104.621 22.6366 104.679 22.67 104.742 22.6906C104.805 22.7113 104.871 22.7187 104.937 22.7124C105.025 22.7132 105.112 22.706 105.199 22.6908C105.276 22.6764 105.343 22.6608 105.4 22.644C105.457 22.6273 105.503 22.6117 105.54 22.5973C105.564 22.5863 105.589 22.579 105.615 22.5757C105.621 22.5754 105.626 22.5766 105.632 22.5792C105.637 22.5818 105.641 22.5856 105.645 22.5904C105.652 22.603 105.656 22.6177 105.655 22.6324C105.655 22.6506 105.653 22.6689 105.65 22.6869C105.647 22.7088 105.643 22.7304 105.637 22.7517C105.631 22.7733 105.623 22.7943 105.613 22.8143C105.604 22.8324 105.593 22.8492 105.58 22.8644C105.551 22.8884 105.519 22.9065 105.483 22.9178C105.429 22.9374 105.374 22.9533 105.318 22.9654C105.249 22.9808 105.179 22.9926 105.108 23.0008C105.033 23.01 104.957 23.0146 104.881 23.0146C104.761 23.0166 104.641 23.0013 104.526 22.969C104.432 22.9427 104.345 22.8948 104.272 22.829C104.204 22.7639 104.152 22.6831 104.122 22.5937C104.087 22.4866 104.07 22.3743 104.072 22.2615C104.073 22.1551 104.082 22.0491 104.101 21.9443C104.12 21.8299 104.15 21.7176 104.191 21.6088C104.232 21.4972 104.285 21.3905 104.35 21.2904C104.414 21.1895 104.493 21.0986 104.583 21.0206C104.676 20.9415 104.782 20.8785 104.896 20.8341C105.024 20.7854 105.159 20.7615 105.296 20.7636C105.406 20.7609 105.516 20.777 105.62 20.8113C105.7 20.8382 105.774 20.8799 105.838 20.9342C105.892 20.9798 105.934 21.037 105.962 21.1015C105.987 21.16 106 21.2229 106 21.2865L106 21.2868ZM105.616 21.321C105.617 21.2848 105.609 21.2489 105.593 21.2163C105.578 21.1836 105.555 21.1552 105.526 21.1333C105.45 21.081 105.358 21.0557 105.266 21.0616C105.176 21.0599 105.087 21.0774 105.005 21.1129C104.93 21.1464 104.862 21.193 104.803 21.2505C104.744 21.3099 104.693 21.3776 104.654 21.4517C104.612 21.5288 104.578 21.61 104.552 21.6939H104.784C104.918 21.6958 105.052 21.6858 105.184 21.664C105.273 21.65 105.359 21.6228 105.441 21.5833C105.496 21.5569 105.544 21.5153 105.577 21.4634C105.602 21.4201 105.616 21.3708 105.615 21.3207L105.616 21.321Z" fill="#64748A"/>
</g>
<defs>
<clipPath id="clip0_510_2918">
<rect width="120.982" height="23.8416" fill="white" transform="translate(0.269531 0.219727)"/>
</clipPath>
</defs>
</svg>
