<svg width="20" height="21" viewBox="0 0 20 21" fill="none" xmlns="http://www.w3.org/2000/svg">
<path d="M18 0.5H2C0.89 0.5 0 1.39 0 2.5V18.5C0 19.61 0.89 20.5 2 20.5H18C19.11 20.5 20 19.61 20 18.5V2.5C20 1.39 19.11 0.5 18 0.5ZM9 2.5C11.21 2.5 13 4.29 13 6.5C13 8 12.2 9.27 11 9.96V8.74C11.61 8.19 12 7.39 12 6.5C12 4.84 10.66 3.5 9 3.5C7.34 3.5 6 4.84 6 6.5C6 7.39 6.39 8.19 7 8.74V9.96C5.8 9.27 5 8 5 6.5C5 4.29 6.79 2.5 9 2.5ZM16 17C15.97 17.82 15.32 18.47 14.5 18.5H9C8.62 18.5 8.26 18.35 8 18.07L4 13.87L4.74 13.1C4.93 12.89 5.2 12.78 5.5 12.78H5.7L8 14.5V6.5C8 5.95 8.45 5.5 9 5.5C9.55 5.5 10 5.95 10 6.5V10.97L11.21 11.1L15.15 13.29C15.68 13.53 16 14.06 16 14.64V17Z" fill="#3B40B7"/>
</svg>
