<svg width="150" height="29" viewBox="0 0 150 29" fill="none" xmlns="http://www.w3.org/2000/svg">
<path d="M39.6115 10.6185V19.0704H45.3543V17.6934H41.2662V15.5567H44.0889V14.1322H41.2662V11.9955H45.3056V10.6185H39.6115ZM54.8931 10.6185V16.174L54.8444 16.1265L50.0264 10.6185H48.907V19.0704H50.513V13.5149L50.5617 13.5624L55.3798 19.0704H56.5478V10.6185H54.8931ZM65.4539 10.6185L62.1446 14.4171V10.6185H60.5385V19.0704H62.1446V15.2243L62.1932 15.2718L65.9893 19.0704H68.082L63.7992 14.8444L67.5953 10.6185H65.4539ZM102.782 13.23L103.901 15.7941H101.663L102.782 13.23ZM102.247 10.6185L98.5477 19.0704H100.251L101.078 17.1711H104.534L105.361 19.0704H107.065L103.366 10.6185H102.247ZM111.59 12.043H112.807C113.975 12.043 114.657 12.5652 114.657 13.5149C114.657 14.4646 113.927 14.9869 112.807 14.9869H111.59V12.043ZM109.984 10.6185V19.0704H111.542V16.4114H112.71C114.802 16.4114 116.165 15.2718 116.165 13.5149C116.165 11.7581 114.851 10.666 112.856 10.666L109.984 10.6185ZM119.62 19.0704H121.227V10.6185H119.62V19.0704ZM125.071 10.6185V11.9955H127.407V19.023H129.013V12.043H131.349V10.666H125.071V10.6185ZM137.19 13.23L138.309 15.7941H136.07L137.19 13.23ZM136.654 10.6185L132.955 19.0704H134.659L135.486 17.1711H138.941L139.769 19.0704H141.472L137.773 10.6185H136.654ZM144.684 10.6185V19.0704H149.989V17.6934H146.339V10.6185H144.684ZM71.5858 14.8444C71.6834 13.325 72.9973 12.1379 74.6033 12.1854C76.1605 12.2804 77.3774 13.5624 77.3285 15.1293C77.2316 16.6013 76.0147 17.7884 74.4575 17.7884C72.8515 17.7409 71.5858 16.4589 71.5858 14.9394C71.5858 14.8919 71.5858 14.8444 71.5858 14.8444ZM71.1967 11.7581C69.3473 13.5149 69.2987 16.3639 71.0509 18.1682C72.8515 19.9726 75.7713 20.0201 77.6207 18.3107C79.4701 16.5538 79.5189 13.7049 77.7665 11.9005C76.8906 10.9983 75.6744 10.5235 74.4087 10.5235C73.2406 10.476 72.0726 10.9509 71.1967 11.7581ZM89.593 11.7581C87.8893 13.4674 87.8893 16.2214 89.593 17.9308C90.4689 18.7381 91.6369 19.2129 92.8538 19.1654C94.2165 19.2129 95.5791 18.5956 96.455 17.551L95.3357 16.5538C94.752 17.3136 93.8754 17.7409 92.9026 17.6934C92.1237 17.6934 91.3447 17.4085 90.8099 16.8387C90.2743 16.2689 89.934 15.5092 89.934 14.7495C89.8852 13.1825 91.1502 11.853 92.7562 11.8055H92.805C93.7297 11.8055 94.6056 12.1854 95.19 12.8976L96.3092 11.9005C95.4333 10.9033 94.1676 10.3336 92.8538 10.3811C91.6369 10.5235 90.42 10.9509 89.593 11.7581ZM7.83544 21.3496C7.54346 21.3496 7.30015 21.587 7.30015 21.8719C7.30015 22.1568 7.54346 22.3943 7.83544 22.3943H20.489C20.781 22.3943 21.0244 22.1568 21.0244 21.8719C21.0244 21.587 20.781 21.3496 20.489 21.3496H7.83544ZM20.489 17.8833C20.197 17.8833 19.9536 18.1208 19.9536 18.4057V19.8776C19.9536 20.1625 20.197 20.4 20.489 20.4C20.781 20.4 21.0244 20.1625 21.0244 19.9251V18.4532C21.0244 18.1208 20.781 17.8833 20.489 17.8833ZM20.489 8.57673C20.197 8.57673 19.9536 8.81417 19.9536 9.09901V10.571C19.9536 10.8559 20.197 11.0933 20.489 11.0933C20.781 11.0933 21.0244 10.8559 21.0244 10.571V9.09901C21.0244 8.76663 20.781 8.52926 20.489 8.57673ZM9.00352 8.67168C8.76014 8.86164 8.76014 9.19402 8.95484 9.38392L13.4322 14.4171L8.95484 19.5452C8.76014 19.7827 8.80881 20.0676 9.00352 20.2575C9.24682 20.4474 9.53881 20.4 9.73351 20.21L14.7949 14.4171L9.73351 8.71915C9.53881 8.52926 9.24682 8.48179 9.00352 8.67168ZM7.73816 6.58244C7.44611 6.58244 7.2028 6.81985 7.2028 7.10475C7.2028 7.38963 7.44611 7.62706 7.73816 7.62706H20.489C20.781 7.62706 21.0244 7.38963 21.0244 7.10475C21.0244 6.81985 20.781 6.58244 20.489 6.58244H7.73816ZM1.02202 14.3696C1.02202 7.10475 7.05678 1.21687 14.5029 1.21687C21.9491 1.21687 27.9838 7.10475 27.9838 14.3696C27.9838 21.6346 21.9491 27.5224 14.5029 27.5224C7.05678 27.5224 1.02202 21.6346 1.02202 14.3696ZM14.5029 0.219727C6.47277 0.219727 0 6.58244 0 14.3696C0 22.1568 6.52144 28.5195 14.5029 28.5195C22.4843 28.5195 29.0058 22.1568 29.0058 14.3696C29.0058 6.53496 22.533 0.219727 14.5029 0.219727Z" fill="#64748A"/>
</svg>
