<svg width="108" height="33" viewBox="0 0 108 33" fill="none" xmlns="http://www.w3.org/2000/svg">
<g clip-path="url(#clip0_2244_1886)">
<path d="M38.1 25.2324C37.8181 25.2324 37.6777 25.0921 37.6777 24.8101V5.93011C37.6777 5.64814 37.8181 5.50781 38.1 5.50781H51.9072C52.1892 5.50781 52.3295 5.64814 52.3295 5.93011V8.43765C52.3295 8.71962 52.1892 8.85994 51.9072 8.85994H41.5649V13.7072H48.1027C48.3846 13.7072 48.525 13.8475 48.525 14.1295V16.4967C48.525 16.7786 48.3846 16.919 48.1027 16.919H41.5649V24.8088C41.5649 25.0908 41.4246 25.2311 41.1427 25.2311H38.0987L38.1 25.2324Z" fill="white"/>
<path d="M55.3735 25.2324C55.0915 25.2324 54.9512 25.0921 54.9512 24.8101V5.93011C54.9512 5.64814 55.0915 5.50781 55.3735 5.50781H58.5289C58.8108 5.50781 58.9512 5.64814 58.9512 5.93011V24.8101C58.9512 25.0921 58.8108 25.2324 58.5289 25.2324H55.3735Z" fill="white"/>
<path d="M63.3481 25.2324C63.0661 25.2324 62.9258 25.0921 62.9258 24.8101V5.93011C62.9258 5.64814 63.0661 5.50781 63.3481 5.50781H66.4759C66.7579 5.50781 66.8982 5.64814 66.8982 5.93011V13.736L74.3369 5.73339C74.4773 5.59306 74.6464 5.50781 74.8445 5.50781H78.7894C79.1553 5.50781 79.2681 5.76093 79.015 6.01535L72.0825 13.3976L79.832 24.7262C80.0287 25.0645 79.9448 25.2337 79.55 25.2337H75.6891C75.4923 25.2337 75.3232 25.1498 75.1815 24.9517L69.3769 16.3576L66.8969 18.978V24.8114C66.8969 25.0934 66.7566 25.2337 66.4746 25.2337H63.3468L63.3481 25.2324Z" fill="white"/>
<path d="M82.7621 25.2324C82.4802 25.2324 82.3398 25.0921 82.3398 24.8101V5.93011C82.3398 5.64814 82.4802 5.50781 82.7621 5.50781H85.9176C86.1995 5.50781 86.3398 5.64814 86.3398 5.93011V24.8101C86.3398 25.0921 86.1995 25.2324 85.9176 25.2324H82.7621Z" fill="white"/>
<path d="M106.996 24.7531L100.007 5.84422C99.9234 5.61865 99.7818 5.50586 99.5273 5.50586H96.1752C95.9221 5.50586 95.7805 5.61865 95.6952 5.84422L88.7064 24.7531C88.5936 25.0626 88.7064 25.2318 89.0447 25.2318H92.3969C92.3969 25.2318 92.3982 25.2318 92.3995 25.2318C92.5319 25.2318 92.6473 25.14 92.6906 25.0141L97.5405 10.9275C97.6362 10.6482 98.0323 10.6482 98.128 10.9275L100.485 17.8193H100.479L102.932 25.0075C102.969 25.1137 103.057 25.1977 103.167 25.2186C103.209 25.2265 103.253 25.2304 103.302 25.2304H106.655C106.992 25.2304 107.105 25.0613 106.992 24.7518L106.996 24.7531Z" fill="white"/>
<path d="M22.8792 19.651C23.1087 19.6248 23.308 19.8044 23.3054 20.0352C23.3054 20.0366 23.3054 20.0379 23.3054 20.0392C23.2936 21.491 22.8267 22.8549 22.2195 24.1651C20.7113 27.4215 18.2654 29.8175 15.2661 31.6982C14.8661 31.9487 14.4595 32.1848 14.0464 32.409C13.7906 32.548 13.4785 32.3618 13.4785 32.0707V20.5323C13.4785 20.3198 13.6503 20.148 13.8628 20.1493C15.3946 20.152 17.0103 20.1113 18.7061 20.009C20.1605 19.9225 21.5533 19.8005 22.8779 19.6497L22.8792 19.651Z" fill="#00B7FE"/>
<path d="M23.3207 16.3872C23.3207 16.5879 23.1672 16.7531 22.9679 16.7689C20.7607 16.9407 18.4485 17.0652 16.038 17.1282C14.0577 17.178 12.143 17.1846 10.2964 17.1518C10.0813 17.1479 9.90689 17.321 9.90689 17.5348V32.1144C9.90689 32.4056 9.59475 32.5918 9.33902 32.4528C7.33508 31.3669 5.4977 30.0423 3.92262 28.3426C2.00918 26.277 0.637377 23.9125 0.120656 21.1059C0.0419672 20.6797 0.0052459 20.2521 0.0052459 19.8193C0.0118033 18.1026 0.00786885 10.7426 0.00786885 9.0259C0.00786885 8.66131 0.00786885 8.29672 0.00918033 7.93344C0.00918033 7.16098 0.0104918 6.39115 0.0104918 5.61869C0.0104918 4.9118 0.00786885 4.20623 0 3.49803V3.47705C0 3.00623 0.196721 2.74787 0.620328 2.56295C2.54295 1.71836 4.57574 1.29738 6.63082 0.97082C8.20328 0.719016 9.78754 0.57082 11.377 0.507869C11.5161 0.501311 11.6564 0.5 11.7954 0.5C12.7003 0.5 13.6039 0.604918 14.5036 0.698033C16.5062 0.910492 18.4892 1.22525 20.4315 1.76689C21.2315 1.99115 22.0118 2.27049 22.7738 2.60361C23.137 2.7623 23.3207 2.99967 23.3207 3.41148C23.318 4.41475 23.3193 5.84164 23.3207 7.46C23.3207 7.70262 23.099 7.88623 22.8603 7.8377C19.7443 7.19377 15.8859 6.67574 11.4584 6.69147C11.061 6.69147 10.6675 6.69803 10.278 6.70721C10.0695 6.71246 9.90557 6.88295 9.90557 7.09148V9.46918C9.90557 9.68426 10.0813 9.85738 10.2964 9.85344C12.2518 9.8141 14.4197 9.83377 16.7593 9.9518C19.0282 10.0685 21.1108 10.2587 22.9849 10.4843C23.1777 10.5079 23.322 10.6705 23.322 10.8646C23.3246 12.757 23.3246 14.6941 23.322 16.3885L23.3207 16.3872Z" fill="#004AE0"/>
</g>
<defs>
<clipPath id="clip0_2244_1886">
<rect width="107.04" height="32" fill="white" transform="translate(0 0.5)"/>
</clipPath>
</defs>
</svg>
