<?xml version="1.0" encoding="UTF-8"?>
<svg id="Layer_1" data-name="Layer 1" xmlns="http://www.w3.org/2000/svg" viewBox="0 0 816.18 244">
  <defs>
    <style>
      .cls-1 {
        fill: #002674;
      }

      .cls-2 {
        fill: #00b7fe;
      }
    </style>
  </defs>
  <g>
    <path class="cls-1" d="M290.52,188.58c-2.15,0-3.22-1.07-3.22-3.22V41.4c0-2.15,1.07-3.22,3.22-3.22h105.28c2.15,0,3.22,1.07,3.22,3.22v19.12c0,2.15-1.07,3.22-3.22,3.22h-78.86v36.96h49.85c2.15,0,3.22,1.07,3.22,3.22v18.05c0,2.15-1.07,3.22-3.22,3.22h-49.85v60.16c0,2.15-1.07,3.22-3.22,3.22h-23.21Z"/>
    <path class="cls-1" d="M422.23,188.58c-2.15,0-3.22-1.07-3.22-3.22V41.4c0-2.15,1.07-3.22,3.22-3.22h24.06c2.15,0,3.22,1.07,3.22,3.22V185.36c0,2.15-1.07,3.22-3.22,3.22h-24.06Z"/>
    <path class="cls-1" d="M483.03,188.58c-2.15,0-3.22-1.07-3.22-3.22V41.4c0-2.15,1.07-3.22,3.22-3.22h23.85c2.15,0,3.22,1.07,3.22,3.22v59.52l56.72-61.02c1.07-1.07,2.36-1.72,3.87-1.72h30.08c2.79,0,3.65,1.93,1.72,3.87l-52.86,56.29,59.09,86.38c1.5,2.58,.86,3.87-2.15,3.87h-29.44c-1.5,0-2.79-.64-3.87-2.15l-44.26-65.53-18.91,19.98v44.48c0,2.15-1.07,3.22-3.22,3.22h-23.85Z"/>
    <path class="cls-1" d="M631.07,188.58c-2.15,0-3.22-1.07-3.22-3.22V41.4c0-2.15,1.07-3.22,3.22-3.22h24.06c2.15,0,3.22,1.07,3.22,3.22V185.36c0,2.15-1.07,3.22-3.22,3.22h-24.06Z"/>
    <path class="cls-1" d="M815.85,184.93l-53.29-144.18c-.64-1.72-1.72-2.58-3.66-2.58h-25.56c-1.93,0-3.01,.86-3.66,2.58l-53.29,144.18c-.86,2.36,0,3.65,2.58,3.65h25.56s.01,0,.02,0c1.01,0,1.89-.7,2.22-1.66l36.98-107.41c.73-2.13,3.75-2.13,4.48,0l17.97,52.55h-.04l18.7,54.81c.28,.81,.95,1.45,1.79,1.61,.32,.06,.66,.09,1.03,.09h25.57c2.57,0,3.43-1.29,2.57-3.65Z"/>
  </g>
  <g>
    <path class="cls-2" d="M174.45,146.03c1.75-.2,3.27,1.17,3.25,2.93,0,.01,0,.02,0,.03-.09,11.07-3.65,21.47-8.28,31.46-11.5,24.83-30.15,43.1-53.02,57.44-3.05,1.91-6.15,3.71-9.3,5.42-1.95,1.06-4.33-.36-4.33-2.58v-87.98c0-1.62,1.31-2.93,2.93-2.92,11.68,.02,24-.29,36.93-1.07,11.09-.66,21.71-1.59,31.81-2.74Z"/>
    <path class="cls-1" d="M177.82,121.14c0,1.53-1.17,2.79-2.69,2.91-16.83,1.31-34.46,2.26-52.84,2.74-15.1,.38-29.7,.43-43.78,.18-1.64-.03-2.97,1.29-2.97,2.92v111.17c0,2.22-2.38,3.64-4.33,2.58-15.28-8.28-29.29-18.38-41.3-31.34-14.59-15.75-25.05-33.78-28.99-55.18-.6-3.25-.88-6.51-.88-9.81,.05-13.09,.02-69.21,.02-82.3,0-2.78,0-5.56,.01-8.33,0-5.89,.01-11.76,.01-17.65,0-5.39-.02-10.77-.08-16.17v-.16c0-3.59,1.5-5.56,4.73-6.97C19.39,9.29,34.89,6.08,50.56,3.59,62.55,1.67,74.63,.54,86.75,.06c1.06-.05,2.13-.06,3.19-.06,6.9,0,13.79,.8,20.65,1.51,15.27,1.62,30.39,4.02,45.2,8.15,6.1,1.71,12.05,3.84,17.86,6.38,2.77,1.21,4.17,3.02,4.17,6.16-.02,7.65-.01,18.53,0,30.87,0,1.85-1.69,3.25-3.51,2.88-23.76-4.91-53.18-8.86-86.94-8.74-3.03,0-6.03,.05-9,.12-1.59,.04-2.84,1.34-2.84,2.93v18.13c0,1.64,1.34,2.96,2.98,2.93,14.91-.3,31.44-.15,49.28,.75,17.3,.89,33.18,2.34,47.47,4.06,1.47,.18,2.57,1.42,2.57,2.9,.02,14.43,.02,29.2,0,42.12Z"/>
  </g>
</svg>