<svg width="16" height="16" viewBox="0 0 16 16" fill="none" xmlns="http://www.w3.org/2000/svg">
<path d="M2.93928 9.68363L5.20728 7.41563L7.09328 9.30163L9.19794 7.19696L8.00261 6.00163H11.3359V9.33496L10.1406 8.13963L7.09328 11.187L5.20728 9.30163L3.55794 10.951C4.30688 12.0782 5.45636 12.8786 6.77343 13.1899C8.0905 13.5011 9.47666 13.3001 10.651 12.6274C11.8254 11.9548 12.7001 10.8608 13.0979 9.56723C13.4957 8.27366 13.3869 6.87723 12.7934 5.66092C12.2 4.4446 11.1664 3.49938 9.90197 3.01679C8.63758 2.5342 7.237 2.55034 5.98407 3.06194C4.73113 3.57354 3.71954 4.54233 3.1543 5.772C2.58905 7.00166 2.51242 8.40023 2.93994 9.68429L2.93928 9.68363ZM1.91461 10.7223L1.90794 10.7156L1.91061 10.713C1.53056 9.85964 1.33475 8.93576 1.33594 8.00163C1.33594 4.31963 4.32061 1.33496 8.00261 1.33496C11.6846 1.33496 14.6693 4.31963 14.6693 8.00163C14.6693 11.6836 11.6846 14.6683 8.00261 14.6683C5.28928 14.6683 2.95594 13.0483 1.91461 10.7223Z" fill="#64748A"/>
</svg>
