<svg width="49" height="48" viewBox="0 0 49 48" fill="none" xmlns="http://www.w3.org/2000/svg">
<rect x="4.5" y="4" width="40" height="40" rx="20" fill="#EBF3FF"/>
<path d="M35.3648 27.227C35.6714 26.2003 35.8314 25.1203 35.8314 24.0003C35.8314 22.8803 35.6714 21.8003 35.3648 20.7737C36.4048 19.9737 36.7248 18.507 36.0448 17.3337C35.3648 16.1603 33.9381 15.6937 32.7248 16.2003C31.2448 14.6403 29.3114 13.4937 27.1514 12.9737C26.9648 11.667 25.8448 10.667 24.4981 10.667C23.1514 10.667 22.0314 11.667 21.8581 12.9737C19.6848 13.4937 17.7648 14.6403 16.2714 16.2003C15.0581 15.6937 13.6314 16.1603 12.9514 17.3337C12.2714 18.507 12.5914 19.9737 13.6314 20.7737C13.3248 21.8003 13.1648 22.8803 13.1648 24.0003C13.1648 25.1203 13.3248 26.2003 13.6314 27.227C12.5914 28.027 12.2714 29.4937 12.9514 30.667C13.6314 31.8403 15.0581 32.307 16.2714 31.8003C16.8048 32.3603 17.3781 32.8537 18.0048 33.2937L16.2048 37.3337H18.7114L20.0181 34.4137C20.6048 34.667 21.2181 34.867 21.8581 35.027C22.0314 36.3337 23.1514 37.3337 24.4981 37.3337C25.8448 37.3337 26.9648 36.3337 27.1381 35.027C27.7514 34.8803 28.3514 34.6803 28.9248 34.4403L30.2314 37.3337H32.7381L30.9515 33.3337C31.5914 32.8803 32.1915 32.3737 32.7381 31.8003C33.9515 32.307 35.3914 31.8403 36.0581 30.667C36.7248 29.4937 36.4048 28.027 35.3648 27.227ZM26.5781 33.0003C26.0848 32.387 25.3381 32.0003 24.4981 32.0003C23.6581 32.0003 22.8981 32.387 22.4048 33.0003C21.8714 32.8803 21.3514 32.7203 20.8581 32.507L22.7648 28.2537C23.2981 28.467 23.8848 28.587 24.4981 28.587C25.0848 28.587 25.6581 28.4803 26.1781 28.2803L28.0714 32.5203C27.5914 32.7203 27.0981 32.8803 26.5781 33.0003ZM22.4714 24.027C22.4714 22.9203 23.3648 22.027 24.4714 22.027C25.5781 22.027 26.4714 22.9203 26.4714 24.027C26.4714 25.1337 25.5781 26.027 24.4714 26.027C23.3648 26.027 22.4714 25.1337 22.4714 24.027ZM33.4448 26.6803C32.6314 26.7737 31.8715 27.227 31.4181 28.0003C30.9914 28.747 30.9648 29.6003 31.2581 30.3337C30.8848 30.7203 30.4848 31.067 30.0581 31.387L28.0581 26.9203C28.7114 26.1337 29.0981 25.1337 29.0981 24.0403C29.0981 21.5203 27.0314 19.4937 24.4848 19.4937C21.9381 19.4937 19.8714 21.5337 19.8714 24.0403C19.8714 25.107 20.2448 26.0937 20.8714 26.8803L18.8448 31.4003C18.4314 31.0937 18.0448 30.7603 17.6848 30.387C18.0314 29.6403 18.0048 28.7603 17.5648 28.0003C17.1114 27.2137 16.3248 26.747 15.4848 26.6803C15.1914 25.7737 15.0448 24.8137 15.0448 23.8137C15.0448 22.9603 15.1648 22.1337 15.3781 21.347C16.2581 21.307 17.1114 20.8403 17.5781 20.0137C18.0714 19.1737 18.0448 18.1737 17.5914 17.3737C18.8181 16.067 20.4048 15.1203 22.1915 14.667C22.6448 15.4537 23.5114 16.0003 24.4981 16.0003C25.4848 16.0003 26.3514 15.467 26.8048 14.667C28.5914 15.1203 30.1781 16.0937 31.3914 17.4003C30.9648 18.187 30.9515 19.1737 31.4314 20.0003C31.8981 20.8003 32.7114 21.267 33.5648 21.3337C33.7781 22.1203 33.8981 22.947 33.8981 23.8137C33.8981 24.8137 33.7381 25.7737 33.4448 26.6803Z" fill="#002674"/>
<rect x="4.5" y="4" width="40" height="40" rx="20" stroke="#F5F9FF" stroke-width="8"/>
</svg>
