<svg width="48" height="49" viewBox="0 0 48 49" fill="none" xmlns="http://www.w3.org/2000/svg">
<rect y="0.5" width="48" height="48" rx="16" fill="white"/>
<path d="M24 14.5C18.486 14.5 14 18.986 14 24.5C14 30.014 18.486 34.5 24 34.5C29.514 34.5 34 30.014 34 24.5C34 18.986 29.514 14.5 24 14.5ZM16 24.5C16 23.601 16.156 22.738 16.431 21.931L18 23.5L20 25.5V27.5L22 29.5L23 30.5V32.431C19.061 31.936 16 28.572 16 24.5ZM30.33 29.373C29.677 28.847 28.687 28.5 28 28.5V27.5C28 26.9696 27.7893 26.4609 27.4142 26.0858C27.0391 25.7107 26.5304 25.5 26 25.5H22V22.5C22.5304 22.5 23.0391 22.2893 23.4142 21.9142C23.7893 21.5391 24 21.0304 24 20.5V19.5H25C25.5304 19.5 26.0391 19.2893 26.4142 18.9142C26.7893 18.5391 27 18.0304 27 17.5V17.089C29.928 18.278 32 21.15 32 24.5C31.9998 26.2647 31.4123 27.9791 30.33 29.373Z" fill="#F1AC4B"/>
</svg>
