<svg width="108" height="32" viewBox="0 0 108 32" fill="none" xmlns="http://www.w3.org/2000/svg">
<g clip-path="url(#clip0_644_2473)">
<path d="M38.101 24.7314C37.819 24.7314 37.6787 24.5911 37.6787 24.3091V5.42913C37.6787 5.14716 37.819 5.00684 38.101 5.00684H51.9082C52.1902 5.00684 52.3305 5.14716 52.3305 5.42913V7.93667C52.3305 8.21864 52.1902 8.35897 51.9082 8.35897H41.5659V13.2062H48.1036C48.3856 13.2062 48.5259 13.3465 48.5259 13.6285V15.9957C48.5259 16.2777 48.3856 16.418 48.1036 16.418H41.5659V24.3078C41.5659 24.5898 41.4256 24.7301 41.1436 24.7301H38.0997L38.101 24.7314Z" fill="#002674"/>
<path d="M55.3744 24.7314C55.0925 24.7314 54.9521 24.5911 54.9521 24.3091V5.42913C54.9521 5.14716 55.0925 5.00684 55.3744 5.00684H58.5299C58.8118 5.00684 58.9521 5.14716 58.9521 5.42913V24.3091C58.9521 24.5911 58.8118 24.7314 58.5299 24.7314H55.3744Z" fill="#002674"/>
<path d="M63.3481 24.7314C63.0661 24.7314 62.9258 24.5911 62.9258 24.3091V5.42913C62.9258 5.14716 63.0661 5.00684 63.3481 5.00684H66.4759C66.7579 5.00684 66.8982 5.14716 66.8982 5.42913V13.235L74.3369 5.23241C74.4773 5.09208 74.6464 5.00684 74.8445 5.00684H78.7894C79.1553 5.00684 79.2681 5.25995 79.015 5.51438L72.0825 12.8967L79.832 24.2252C80.0287 24.5636 79.9448 24.7327 79.55 24.7327H75.6891C75.4923 24.7327 75.3232 24.6488 75.1815 24.4508L69.3769 15.8567L66.8969 18.477V24.3104C66.8969 24.5924 66.7566 24.7327 66.4746 24.7327H63.3468L63.3481 24.7314Z" fill="#002674"/>
<path d="M82.7631 24.7314C82.4812 24.7314 82.3408 24.5911 82.3408 24.3091V5.42913C82.3408 5.14716 82.4812 5.00684 82.7631 5.00684H85.9185C86.2005 5.00684 86.3408 5.14716 86.3408 5.42913V24.3091C86.3408 24.5911 86.2005 24.7314 85.9185 24.7314H82.7631Z" fill="#002674"/>
<path d="M106.997 24.2531L100.008 5.34422C99.9244 5.11865 99.7827 5.00586 99.5283 5.00586H96.1762C95.9231 5.00586 95.7814 5.11865 95.6962 5.34422L88.7073 24.2531C88.5945 24.5626 88.7073 24.7318 89.0457 24.7318H92.3978C92.3978 24.7318 92.3991 24.7318 92.4004 24.7318C92.5329 24.7318 92.6483 24.64 92.6916 24.5141L97.5414 10.4275C97.6372 10.1482 98.0332 10.1482 98.129 10.4275L100.486 17.3193H100.48L102.933 24.5075C102.97 24.6137 103.058 24.6977 103.168 24.7186C103.21 24.7265 103.254 24.7304 103.303 24.7304H106.656C106.993 24.7304 107.106 24.5613 106.993 24.2518L106.997 24.2531Z" fill="#002674"/>
<path d="M22.8792 19.152C23.1087 19.1257 23.308 19.3054 23.3054 19.5362C23.3054 19.5375 23.3054 19.5388 23.3054 19.5402C23.2936 20.992 22.8267 22.3559 22.2195 23.6661C20.7113 26.9225 18.2654 29.3185 15.2661 31.1992C14.8661 31.4497 14.4595 31.6857 14.0464 31.91C13.7906 32.049 13.4785 31.8628 13.4785 31.5716V20.0333C13.4785 19.8208 13.6503 19.649 13.8628 19.6503C15.3946 19.6529 17.0103 19.6123 18.7061 19.51C20.1605 19.4234 21.5533 19.3015 22.8779 19.1507L22.8792 19.152Z" fill="#00B7FE"/>
<path d="M23.3207 15.8872C23.3207 16.0879 23.1672 16.2531 22.9679 16.2689C20.7607 16.4407 18.4485 16.5652 16.038 16.6282C14.0577 16.678 12.143 16.6846 10.2964 16.6518C10.0813 16.6479 9.90689 16.821 9.90689 17.0348V31.6144C9.90689 31.9056 9.59475 32.0918 9.33902 31.9528C7.33508 30.8669 5.4977 29.5423 3.92262 27.8426C2.00918 25.777 0.637377 23.4125 0.120656 20.6059C0.0419672 20.1797 0.0052459 19.7521 0.0052459 19.3193C0.0118033 17.6026 0.00786885 10.2426 0.00786885 8.5259C0.00786885 8.16131 0.00786885 7.79672 0.00918033 7.43344C0.00918033 6.66098 0.0104918 5.89115 0.0104918 5.11869C0.0104918 4.4118 0.00786885 3.70623 0 2.99803V2.97705C0 2.50623 0.196721 2.24787 0.620328 2.06295C2.54295 1.21836 4.57574 0.797377 6.63082 0.47082C8.20328 0.219016 9.78754 0.0708197 11.377 0.00786885C11.5161 0.00131148 11.6564 0 11.7954 0C12.7003 0 13.6039 0.104918 14.5036 0.198033C16.5062 0.410492 18.4892 0.725246 20.4315 1.26689C21.2315 1.49115 22.0118 1.77049 22.7738 2.10361C23.137 2.2623 23.3207 2.49967 23.3207 2.91148C23.318 3.91475 23.3193 5.34164 23.3207 6.96C23.3207 7.20262 23.099 7.38623 22.8603 7.3377C19.7443 6.69377 15.8859 6.17574 11.4584 6.19147C11.061 6.19147 10.6675 6.19803 10.278 6.20721C10.0695 6.21246 9.90557 6.38295 9.90557 6.59148V8.96918C9.90557 9.18426 10.0813 9.35738 10.2964 9.35344C12.2518 9.3141 14.4197 9.33377 16.7593 9.4518C19.0282 9.56852 21.1108 9.75869 22.9849 9.98426C23.1777 10.0079 23.322 10.1705 23.322 10.3646C23.3246 12.257 23.3246 14.1941 23.322 15.8885L23.3207 15.8872Z" fill="#002674"/>
</g>
<defs>
<clipPath id="clip0_644_2473">
<rect width="107.04" height="32" fill="white"/>
</clipPath>
</defs>
</svg>
