<svg width="48" height="48" viewBox="0 0 48 48" fill="none" xmlns="http://www.w3.org/2000/svg">
<rect x="4" y="4" width="40" height="40" rx="20" fill="#EBF3FF"/>
<path d="M24 17.9C25.16 17.9 26.1 18.84 26.1 20C26.1 21.16 25.16 22.1 24 22.1C22.84 22.1 21.9 21.16 21.9 20C21.9 18.84 22.84 17.9 24 17.9ZM24 26.9C26.97 26.9 30.1 28.36 30.1 29V30.1H17.9V29C17.9 28.36 21.03 26.9 24 26.9ZM24 16C21.79 16 20 17.79 20 20C20 22.21 21.79 24 24 24C26.21 24 28 22.21 28 20C28 17.79 26.21 16 24 16ZM24 25C21.33 25 16 26.34 16 29V32H32V29C32 26.34 26.67 25 24 25Z" fill="#002674"/>
<rect x="4" y="4" width="40" height="40" rx="20" stroke="#F5F9FF" stroke-width="8"/>
</svg>
