<svg width="116" height="186" viewBox="0 0 116 186" fill="none" xmlns="http://www.w3.org/2000/svg">
<g clip-path="url(#clip0_77_2303)">
<path d="M56.5974 97.7864C65.6573 97.7864 73.0018 90.4419 73.0018 81.3819C73.0018 72.322 65.6573 64.9775 56.5974 64.9775C47.5375 64.9775 40.193 72.322 40.193 81.3819C40.193 90.4419 47.5375 97.7864 56.5974 97.7864Z" fill="#002674"/>
<path d="M16.7003 121.299C16.3527 121.132 16.0564 120.875 15.8424 120.554C15.6284 120.234 15.5046 119.862 15.4839 119.477L15.2453 114.959C15.2159 114.391 15.413 113.835 15.7935 113.412C16.174 112.989 16.7067 112.734 17.2747 112.703L54.9277 110.714C55.4958 110.685 56.0524 110.882 56.4753 111.262C56.8982 111.643 57.1529 112.176 57.1835 112.744L57.4222 117.261C57.4516 117.829 57.2544 118.386 56.8739 118.809C56.4935 119.232 55.9608 119.486 55.3928 119.517L17.7398 121.506C17.3813 121.526 17.0238 121.454 16.7003 121.299Z" fill="#002674"/>
<path d="M42.6559 121.386C42.2896 121.209 41.981 120.932 41.7659 120.586C41.5508 120.241 41.4381 119.842 41.4407 119.435L41.3961 110.929C41.3982 110.647 41.4558 110.368 41.5656 110.109C41.6755 109.849 41.8354 109.614 42.0364 109.416C42.2373 109.218 42.4752 109.062 42.7366 108.956C42.9979 108.85 43.2775 108.797 43.5595 108.799L60.7368 110.314C61.1915 110.316 61.7655 111.021 62.2269 111.586C62.3717 111.764 62.4966 111.917 62.5881 112.01C62.6281 112.051 62.6662 112.093 62.7024 112.136C63.0306 112.527 63.2084 113.022 63.2038 113.533L63.1662 118.056C63.1608 118.625 62.93 119.169 62.5244 119.567C62.1188 119.966 61.5716 120.188 61.0027 120.184L43.5818 121.598C43.2613 121.597 42.9451 121.525 42.6559 121.386Z" fill="#2F2E41"/>
<path d="M53.399 185.549H48.8751C48.3062 185.548 47.7608 185.322 47.3586 184.92C46.9564 184.517 46.7301 183.972 46.7295 183.403V145.085C46.7301 144.516 46.9564 143.97 47.3586 143.568C47.7609 143.166 48.3062 142.94 48.8751 142.939H53.399C53.9679 142.94 54.5132 143.166 54.9155 143.568C55.3177 143.97 55.544 144.516 55.5446 145.085V183.403C55.544 183.972 55.3177 184.517 54.9155 184.92C54.5132 185.322 53.9679 185.548 53.399 185.549Z" fill="#002674"/>
<path d="M65.3331 185.549H60.8092C60.2403 185.548 59.6949 185.322 59.2927 184.92C58.8904 184.517 58.6642 183.972 58.6636 183.403V145.085C58.6642 144.516 58.8905 143.97 59.2927 143.568C59.695 143.166 60.2403 142.94 60.8092 142.939H65.3331C65.902 142.94 66.4473 143.166 66.8496 143.568C67.2518 143.97 67.4781 144.516 67.4787 145.085V183.403C67.4781 183.972 67.2518 184.517 66.8496 184.92C66.4473 185.322 65.902 185.548 65.3331 185.549Z" fill="#002674"/>
<path d="M58.7813 87.4622L58.7984 86.8492C57.658 86.8175 56.6525 86.7459 55.897 86.194C55.6828 86.0286 55.5067 85.819 55.3808 85.5795C55.2548 85.34 55.182 85.0762 55.1671 84.806C55.1538 84.6409 55.1788 84.4749 55.2401 84.3211C55.3014 84.1672 55.3973 84.0295 55.5204 83.9188C56.022 83.4952 56.829 83.6323 57.4172 83.902L57.9244 84.1346L56.9517 77.0264L56.3444 77.1096L57.1717 83.1561C56.833 83.0304 56.4683 82.9915 56.1108 83.043C55.7532 83.0944 55.4143 83.2346 55.1248 83.4506C54.93 83.6206 54.7772 83.8334 54.6783 84.0722C54.5793 84.3111 54.537 84.5696 54.5545 84.8275C54.5724 85.1906 54.6695 85.5453 54.8389 85.8669C55.0084 86.1884 55.2461 86.469 55.5354 86.6891C56.5061 87.3985 57.7677 87.4338 58.7813 87.4622Z" fill="#2F2E41"/>
<path d="M53.3393 77.6299H50.0377V78.2429H53.3393V77.6299Z" fill="#2F2E41"/>
<path d="M63.7613 77.6299H60.4597V78.2429H63.7613V77.6299Z" fill="#2F2E41"/>
<path d="M75.2866 136.013L60.1454 105.819H60.3589C60.8871 105.819 61.3935 105.609 61.767 105.235C62.1406 104.862 62.3506 104.355 62.3512 103.827V103.214C62.3506 102.686 62.1406 102.179 61.767 101.806C61.3935 101.432 60.8871 101.222 60.3589 101.222H53.6156C53.0874 101.222 52.581 101.432 52.2075 101.806C51.8339 102.179 51.6239 102.686 51.6233 103.214V103.827C51.6248 104.314 51.8052 104.784 52.1303 105.147C52.4554 105.51 52.9025 105.741 53.3867 105.796L38.2019 136.029C37.4797 137.467 37.1374 139.066 37.2076 140.673C37.2777 142.281 37.758 143.844 38.6026 145.213C39.4473 146.583 40.6283 147.713 42.0333 148.497C43.4382 149.281 45.0205 149.693 46.6295 149.693H66.843C68.4541 149.693 70.0384 149.281 71.4452 148.496C72.8521 147.711 74.0349 146.579 74.8811 145.208C75.7272 143.838 76.2087 142.273 76.2797 140.663C76.3507 139.054 76.0088 137.453 75.2866 136.013Z" fill="#2F2E41"/>
<path d="M57.3055 112.653L91.4595 96.6775C91.975 96.437 92.5649 96.4108 93.0996 96.6047C93.6344 96.7987 94.0704 97.1968 94.312 97.7119L96.2287 101.81C96.4691 102.325 96.4953 102.915 96.3013 103.45C96.1074 103.985 95.7093 104.421 95.1943 104.662L61.0403 120.638C60.5248 120.878 59.9349 120.904 59.4001 120.71C58.8654 120.516 58.4294 120.118 58.1878 119.603L56.2711 115.505C56.1512 115.25 56.0829 114.974 56.0704 114.692C56.058 114.411 56.1015 114.13 56.1984 113.865C56.2742 113.655 56.3821 113.459 56.5182 113.282C56.7266 113.012 56.9966 112.796 57.3055 112.653Z" fill="#002674"/>
<path d="M56.1344 112.554L71.1711 103.591C71.6837 103.345 72.2729 103.313 72.8095 103.5C73.3461 103.688 73.7864 104.081 74.0337 104.593L77.8257 112.211C77.9484 112.466 78.0194 112.743 78.0347 113.025C78.0501 113.308 78.0094 113.59 77.9151 113.857C77.8208 114.123 77.6747 114.369 77.4852 114.578C77.2957 114.788 77.0666 114.959 76.811 115.08L60.7482 121.285C60.3275 121.487 59.5018 121.108 58.8382 120.804C58.6302 120.709 58.4504 120.626 58.3276 120.583C58.2736 120.564 58.2207 120.543 58.1693 120.52C57.7024 120.314 57.3245 119.948 57.1037 119.488L55.1428 115.411C54.9703 115.052 54.901 114.652 54.9427 114.255C54.9844 113.859 55.1355 113.481 55.379 113.166C55.5796 112.906 55.8383 112.696 56.1344 112.554Z" fill="#2F2E41"/>
<path d="M43.64 72.8494C43.4206 72.8487 43.2103 72.7612 43.0552 72.6059C42.9001 72.4507 42.8127 72.2404 42.8121 72.0209C42.8111 71.9557 42.8184 71.8907 42.8339 71.8273L47.1216 52.9411C47.154 52.7989 47.2233 52.6677 47.3224 52.5606C47.4215 52.4535 47.547 52.3744 47.6863 52.3311C47.8256 52.2877 47.9738 52.2817 48.1162 52.3137C48.2585 52.3456 48.39 52.4144 48.4974 52.5131L62.7124 65.6765C62.8193 65.7757 62.8983 65.9012 62.9415 66.0404C62.9847 66.1797 62.9906 66.3279 62.9586 66.4702C62.9266 66.6124 62.8578 66.7438 62.7591 66.8512C62.6604 66.9586 62.5353 67.0381 62.3962 67.082L43.8893 72.812C43.8085 72.8367 43.7245 72.8493 43.64 72.8494Z" fill="#3F3D56"/>
<path d="M55.2676 59.043L46.3386 57.2661L46.4791 56.646L54.373 58.2154L55.2676 59.043Z" fill="white"/>
<path d="M62.2977 65.5559L45.2258 62.1589L45.3663 61.5356L61.4027 64.7248L62.2977 65.5559Z" fill="white"/>
<path d="M56.1905 68.8029L54.9091 69.199L44.1171 67.0514L44.2576 66.4282L56.1905 68.8029Z" fill="white"/>
<path d="M97.8156 73.1381C99.3038 73.1381 100.51 71.9317 100.51 70.4436C100.51 68.9554 99.3038 67.749 97.8156 67.749C96.3275 67.749 95.1211 68.9554 95.1211 70.4436C95.1211 71.9317 96.3275 73.1381 97.8156 73.1381Z" fill="#002674"/>
<path d="M63.172 3.84934C64.235 3.84934 65.0967 2.98764 65.0967 1.92467C65.0967 0.861705 64.235 0 63.172 0C62.109 0 61.2473 0.861705 61.2473 1.92467C61.2473 2.98764 62.109 3.84934 63.172 3.84934Z" fill="#FF6584"/>
<path d="M21.2136 63.5149C22.2766 63.5149 23.1383 62.6532 23.1383 61.5902C23.1383 60.5272 22.2766 59.6655 21.2136 59.6655C20.1506 59.6655 19.2889 60.5272 19.2889 61.5902C19.2889 62.6532 20.1506 63.5149 21.2136 63.5149Z" fill="#FF6584"/>
<path d="M88.5784 56.9709C89.6413 56.9709 90.503 56.1092 90.503 55.0463C90.503 53.9833 89.6413 53.1216 88.5784 53.1216C87.5154 53.1216 86.6537 53.9833 86.6537 55.0463C86.6537 56.1092 87.5154 56.9709 88.5784 56.9709Z" fill="#002674"/>
<path d="M30.0677 83.1467C31.1307 83.1467 31.9924 82.285 31.9924 81.222C31.9924 80.1591 31.1307 79.2974 30.0677 79.2974C29.0048 79.2974 28.1431 80.1591 28.1431 81.222C28.1431 82.285 29.0048 83.1467 30.0677 83.1467Z" fill="#002674"/>
<path d="M90.8878 88.5354C91.9508 88.5354 92.8125 87.6737 92.8125 86.6107C92.8125 85.5477 91.9508 84.686 90.8878 84.686C89.8248 84.686 88.9631 85.5477 88.9631 86.6107C88.9631 87.6737 89.8248 88.5354 90.8878 88.5354Z" fill="#E6E6E6"/>
<path d="M73.9506 20.0173C75.0135 20.0173 75.8752 19.1556 75.8752 18.0926C75.8752 17.0297 75.0135 16.168 73.9506 16.168C72.8876 16.168 72.0259 17.0297 72.0259 18.0926C72.0259 19.1556 72.8876 20.0173 73.9506 20.0173Z" fill="#CCCCCC"/>
<path d="M1.20388 41.179C3.21921 41.306 5.17576 41.9087 6.91316 42.9379C8.65056 43.967 10.1193 45.3932 11.1991 47.0996C11.5017 47.5834 11.8967 48.115 11.6872 48.7104C11.6143 48.9387 11.466 49.1355 11.2667 49.2686C11.0674 49.4017 10.8288 49.4633 10.5899 49.4433C10.2921 49.3792 10.0237 49.2189 9.82604 48.9871C9.62837 48.7553 9.51246 48.465 9.49616 48.1608C9.47986 47.8566 9.56409 47.5555 9.73586 47.3039C9.90763 47.0524 10.1574 46.8643 10.4466 46.7687C11.8444 46.1725 13.2546 47.094 14.3932 47.8293C16.9875 49.505 19.8409 51.0203 22.9845 51.2113C25.893 51.388 29.012 50.2475 30.6298 47.7253C30.9128 47.284 30.2101 46.8763 29.9284 47.3153C28.324 49.8168 25.0805 50.7152 22.2604 50.3286C20.5797 50.0634 18.9569 49.5124 17.4623 48.6996C16.6871 48.2973 15.9353 47.8514 15.1987 47.3826C14.4978 46.8935 13.7549 46.4676 12.9787 46.1099C11.6841 45.5781 9.97036 45.6197 9.0661 46.844C8.2225 47.9862 8.87445 49.8879 10.2854 50.209C10.595 50.27 10.9148 50.2533 11.2163 50.1603C11.5177 50.0673 11.7914 49.9009 12.0127 49.6761C12.2341 49.4513 12.3962 49.1751 12.4845 48.8722C12.5729 48.5694 12.5847 48.2493 12.5189 47.9408C12.3781 47.2682 11.8716 46.6099 11.4795 46.0601C10.3016 44.403 8.76691 43.0313 6.98853 42.046C5.21015 41.0607 3.23338 40.4869 1.20383 40.3668C0.681374 40.341 0.682784 41.1532 1.20388 41.179Z" fill="#CCCCCC"/>
<path d="M115.033 65.7652C113.683 64.8959 112.557 63.7188 111.75 62.3307C110.942 60.9425 110.475 59.3826 110.386 57.779C110.364 57.3257 110.295 56.8034 110.672 56.4711C110.811 56.3408 110.99 56.2616 111.18 56.2464C111.37 56.2313 111.56 56.281 111.718 56.3875C111.9 56.5474 112.024 56.7628 112.072 57.0004C112.119 57.238 112.087 57.4846 111.98 57.7021C111.874 57.9197 111.699 58.0962 111.482 58.2043C111.265 58.3124 111.019 58.3462 110.781 58.3005C109.579 58.1727 108.957 56.9862 108.451 56.0341C107.299 53.8648 105.904 51.7063 103.795 50.3551C101.844 49.105 99.2356 48.688 97.1344 49.8126C96.7667 50.0094 97.0967 50.565 97.4625 50.3692C99.5464 49.2539 102.147 49.8872 103.956 51.2489C105.02 52.0845 105.934 53.0962 106.657 54.2401C107.039 54.8199 107.388 55.421 107.718 56.0321C108.015 56.6434 108.366 57.2272 108.767 57.7765C109.46 58.6476 110.666 59.2831 111.769 58.7833C112.014 58.6562 112.227 58.4733 112.389 58.2494C112.552 58.0254 112.659 57.7666 112.704 57.4935C112.748 57.2205 112.728 56.9409 112.645 56.677C112.562 56.4131 112.419 56.1722 112.226 55.9737C112.035 55.8113 111.806 55.699 111.561 55.6467C111.315 55.5945 111.061 55.6039 110.82 55.6742C110.579 55.7446 110.359 55.8735 110.181 56.0496C110.002 56.2257 109.87 56.4434 109.796 56.6832C109.682 57.247 109.68 57.8275 109.789 58.3922C109.964 59.9997 110.498 61.5472 111.352 62.9208C112.205 64.2945 113.355 65.4593 114.718 66.3293C115.071 66.5498 115.385 65.9851 115.033 65.7652Z" fill="#CCCCCC"/>
<path d="M48.6181 12.4747C47.0152 12.3737 45.4591 11.8943 44.0773 11.0758C42.6954 10.2573 41.5273 9.12294 40.6685 7.76576C40.4278 7.38102 40.1136 6.95821 40.2802 6.48464C40.3383 6.30306 40.4562 6.14654 40.6147 6.04066C40.7732 5.93478 40.963 5.88581 41.1529 5.90176C41.3898 5.95275 41.6033 6.08024 41.7605 6.26458C41.9177 6.44892 42.0099 6.67986 42.0229 6.92179C42.0358 7.16372 41.9688 7.40319 41.8322 7.60327C41.6956 7.80336 41.497 7.95293 41.2669 8.02893C40.1552 8.50314 39.0336 7.77028 38.128 7.1854C36.0647 5.85269 33.7952 4.64744 31.2949 4.49556C28.9816 4.35506 26.501 5.26208 25.2143 7.26815C24.9892 7.61912 25.5481 7.94343 25.7721 7.59419C27.0482 5.60467 29.6279 4.89012 31.8709 5.19763C33.2075 5.40856 34.4982 5.84676 35.687 6.49324C36.3035 6.81319 36.9015 7.16786 37.4873 7.5407C38.0448 7.92968 38.6357 8.26843 39.2531 8.55294C40.2827 8.97588 41.6457 8.94284 42.3649 7.96906C42.5174 7.73831 42.6139 7.47506 42.6465 7.20037C42.6792 6.92568 42.6471 6.64717 42.5528 6.38709C42.4586 6.12702 42.3048 5.8926 42.1038 5.70258C41.9027 5.51256 41.6601 5.3722 41.3951 5.29274C41.1489 5.24421 40.8945 5.25752 40.6548 5.33149C40.415 5.40546 40.1973 5.53777 40.0213 5.71656C39.8452 5.89535 39.7163 6.11503 39.6461 6.35591C39.5758 6.59679 39.5664 6.85134 39.6188 7.09674C39.7944 7.64433 40.0752 8.15241 40.4454 8.59253C41.3823 9.91049 42.6029 11.0015 44.0173 11.7852C45.4317 12.5688 47.0039 13.0252 48.6182 13.1207C49.0337 13.1412 49.0326 12.4952 48.6181 12.4747Z" fill="#CCCCCC"/>
<path d="M50.0841 32.9399H48.1594V39.2639H50.0841V32.9399Z" fill="#CCCCCC"/>
<path d="M18.9639 28.5271L20.3015 27.1895L15.9065 22.7945L14.5689 24.1321L18.9639 28.5271Z" fill="#B3B3B3"/>
<path d="M73.0799 41.8167L74.4175 43.1543L78.8124 38.7593L77.4749 37.4217L73.0799 41.8167Z" fill="#B3B3B3"/>
<path d="M18.4186 96.4769L19.7562 97.8145L24.1512 93.4195L22.8136 92.0819L18.4186 96.4769Z" fill="#FF6584"/>
</g>
<defs>
<clipPath id="clip0_77_2303">
<rect width="114.375" height="185.549" fill="white" transform="translate(0.8125)"/>
</clipPath>
</defs>
</svg>
