<svg width="20" height="21" viewBox="0 0 20 21" fill="none" xmlns="http://www.w3.org/2000/svg">
<path d="M10 0.5C4.486 0.5 0 4.986 0 10.5C0 16.014 4.486 20.5 10 20.5C15.514 20.5 20 16.014 20 10.5C20 4.986 15.514 0.5 10 0.5ZM2 10.5C2 9.601 2.156 8.738 2.431 7.931L4 9.5L6 11.5V13.5L8 15.5L9 16.5V18.431C5.061 17.936 2 14.572 2 10.5ZM16.33 15.373C15.677 14.847 14.687 14.5 14 14.5V13.5C14 12.9696 13.7893 12.4609 13.4142 12.0858C13.0391 11.7107 12.5304 11.5 12 11.5H8V8.5C8.53043 8.5 9.03914 8.28929 9.41421 7.91421C9.78929 7.53914 10 7.03043 10 6.5V5.5H11C11.5304 5.5 12.0391 5.28929 12.4142 4.91421C12.7893 4.53914 13 4.03043 13 3.5V3.089C15.928 4.278 18 7.15 18 10.5C17.9998 12.2647 17.4123 13.9791 16.33 15.373Z" fill="#F1AC4B"/>
</svg>
